<svg xmlns="http://www.w3.org/2000/svg" xmlns:xlink="http://www.w3.org/1999/xlink" width="1500" height="1500" viewBox="0 0 1500 1500">
<defs>
<clipPath id="clip-path">
<rect id="Rectangle_2147" data-name="Rectangle 2147" width="1126" height="940" transform="translate(187 280)" fill="#fff"></rect>
</clipPath>
<clipPath id="clip-undraw_empty_cart_co35">
<rect width="1500" height="1500" id="id_101"></rect>
</clipPath>
</defs>
<g id="undraw_empty_cart_co35" clip-path="url(#clip-undraw_empty_cart_co35)">
<rect width="1500" height="1500" fill="#fff" id="id_102"></rect>
<g id="undraw_empty_cart_co35-2" data-name="undraw_empty_cart_co35">
<g id="undraw_empty_cart_co35-3" data-name="undraw_empty_cart_co35">
<rect id="Rectangle_2146" data-name="Rectangle 2146" width="1500" height="1500" fill="#fff" opacity="0"></rect>
<g id="Group_422" data-name="Group 422" clip-path="url(#clip-path)">
<path id="Path_14909" data-name="Path 14909" d="M239.321,1175.72c15.619,28.97,48.768,41.4,48.768,41.4s7.825-34.53-7.793-63.49-48.768-41.41-48.768-41.41S223.7,1146.75,239.321,1175.72Z" fill="#5a587c"></path>
<path id="Path_14910" data-name="Path 14910" d="M250.057,1166.19c28.2,16.97,39.058,50.66,39.058,50.66s-34.858,6.2-63.057-10.77S187,1155.42,187,1155.42,221.858,1149.23,250.057,1166.19Z" fill="#5a587c"></path>
<path id="Path_14911" data-name="Path 14911" d="M882.266,325.127H706.328v2.513H882.266Z" fill="#f1e6e6"></path>
<path id="Path_14912" data-name="Path 14912" d="M834.511,327.012H832v23.249h2.513Z" fill="#f1e6e6"></path>
<path id="Path_14913" data-name="Path 14913" d="M757.852,327.012h-2.513v23.249h2.513Z" fill="#f1e6e6"></path>
<path id="Path_14914" data-name="Path 14914" d="M971.491,445.773H795.553v2.514H971.491Z" fill="#f1e6e6"></path>
<path id="Path_14915" data-name="Path 14915" d="M845.821,423.152h-2.513V446.4h2.513Z" fill="#f1e6e6"></path>
<path id="Path_14916" data-name="Path 14916" d="M922.48,423.152h-2.514V446.4h2.514Z" fill="#f1e6e6"></path>
<path id="Path_14917" data-name="Path 14917" d="M1205.24,502.326H1029.3v2.514h175.94Z" fill="#f1e6e6"></path>
<path id="Path_14918" data-name="Path 14918" d="M1079.57,479.7h-2.52v23.25h2.52Z" fill="#f1e6e6"></path>
<path id="Path_14919" data-name="Path 14919" d="M1156.23,479.7h-2.52v23.25h2.52Z" fill="#f1e6e6"></path>
<path id="Path_14920" data-name="Path 14920" d="M1187.64,1085.45H1011.71v2.51h175.93Z" fill="#f1e6e6"></path>
<path id="Path_14921" data-name="Path 14921" d="M1061.97,1062.83h-2.51v23.25h2.51Z" fill="#f1e6e6"></path>
<path id="Path_14922" data-name="Path 14922" d="M1138.63,1062.83h-2.51v23.25h2.51Z" fill="#f1e6e6"></path>
<path id="Path_14923" data-name="Path 14923" d="M887.292,682.039H711.354v2.514H887.292Z" fill="#f1e6e6"></path>
<path id="Path_14924" data-name="Path 14924" d="M761.623,659.418h-2.514v23.249h2.514Z" fill="#f1e6e6"></path>
<path id="Path_14925" data-name="Path 14925" d="M838.281,659.418h-2.513v23.249h2.513Z" fill="#f1e6e6"></path>
<path id="Path_14926" data-name="Path 14926" d="M942.587,984.91H766.649v2.514H942.587Z" fill="#f1e6e6"></path>
<path id="Path_14927" data-name="Path 14927" d="M816.917,962.289H814.4v23.25h2.513Z" fill="#f1e6e6"></path>
<path id="Path_14928" data-name="Path 14928" d="M893.576,962.289h-2.514v23.25h2.514Z" fill="#f1e6e6"></path>
<path id="Path_14929" data-name="Path 14929" d="M1224.09,893.17H1048.15v2.513h175.94Z" fill="#f1e6e6"></path>
<path id="Path_14930" data-name="Path 14930" d="M1098.42,870.549h-2.52V893.8h2.52Z" fill="#f1e6e6"></path>
<path id="Path_14931" data-name="Path 14931" d="M1175.08,870.549h-2.52V893.8h2.52Z" fill="#f1e6e6"></path>
<path id="Path_14932" data-name="Path 14932" d="M642,1162.46H344.432v-2.14H639.858V1056.49H369.447l-13.136-27.37,1.93-.93,12.554,26.15H642Z" fill="#5a587c"></path>
<path id="Path_14933" data-name="Path 14933" d="M384.036,1214.91a22.48,22.48,0,1,0-22.478-22.48A22.483,22.483,0,0,0,384.036,1214.91Z" fill="#41bd28"></path>
<path id="Path_14934" data-name="Path 14934" d="M605.606,1214.91a22.48,22.48,0,1,0-22.478-22.48A22.483,22.483,0,0,0,605.606,1214.91Z" fill="#3db825"></path>
<path id="Path_14935" data-name="Path 14935" d="M866.781,728.936a13.915,13.915,0,1,0-13.915-13.915A13.915,13.915,0,0,0,866.781,728.936Z" fill="#40b828"></path>
<path id="Path_14936" data-name="Path 14936" d="M673.826,1021.16H339.358L266.987,784.6h481.37l-.438,1.391Zm-332.885-2.14H672.256l73.182-232.28H269.88Z" fill="#5a587c"></path>
<path id="Path_14937" data-name="Path 14937" d="M647.718,1008.85H353.942l-63.566-209.8h422.8l-.384,1.235Z" fill="#f1e6e6"></path>
<path id="Path_14938" data-name="Path 14938" d="M754.354,763.466l-2.069-.55,14.126-53.246h82.174v2.141H768.059Z" fill="#5a587c"></path>
<path id="Path_14939" data-name="Path 14939" d="M724.3,856.316H290.374v2.141H724.3Z" fill="#5a587c"></path>
<path id="Path_14940" data-name="Path 14940" d="M699.452,935.189H314.5v2.141H699.452Z" fill="#5a587c"></path>
<path id="Path_14941" data-name="Path 14941" d="M508.736,785.67H506.6v234.42h2.141Z" fill="#5a587c"></path>
<path id="Path_14942" data-name="Path 14942" d="M604.583,785.6,589.215,1020.02l2.137.14,15.367-234.419Z" fill="#5a587c"></path>
<path id="Path_14943" data-name="Path 14943" d="M410.793,785.6l-2.136.139,15.278,234.422,2.136-.14Z" fill="#5a587c"></path>
<path id="Path_14944" data-name="Path 14944" d="M1313,1216.27H187v2.51H1313Z" fill="#5a587c"></path>
<path id="Path_14945" data-name="Path 14945" d="M935.25,357.761s18.371,52.288,7.066,60.332,38.155,73.739,38.155,73.739l59.349-16.088-32.5-54.97s-4.24-54.969-4.24-63.013S935.25,357.761,935.25,357.761Z" fill="#d6babe"></path>
<path id="Path_14946" data-name="Path 14946" d="M935.25,357.761s18.371,52.288,7.066,60.332,38.155,73.739,38.155,73.739l59.349-16.088-32.5-54.97s-4.24-54.969-4.24-63.013S935.25,357.761,935.25,357.761Z" opacity="0.1"></path>
<path id="Path_14947" data-name="Path 14947" d="M904.415,730.481s-5.363,67.036,0,101.894,13.406,131.391,13.406,131.391,0,182.334,29.495,185.014,50.946,5.37,53.624-5.36-13.4-16.09-5.359-21.45,10.729-24.13,0-45.58,0-238.652,0-238.652l50.949,136.753s5.36,112.619,10.72,128.709-5.36,45.58,13.41,48.27,40.22-13.41,50.94-18.77-16.08-5.37-10.72-8.05,21.45-10.72,16.09-13.41-10.73-131.386-10.73-131.386-14.75-274.847-33.52-285.572-30.83,7.748-30.83,7.748Z" fill="#5a587c"></path>
<path id="Path_14948" data-name="Path 14948" d="M952.68,1138.06v21.45s-24.133,58.31,0,58.31,42.9,6.04,42.9-2v-72.4Z" fill="#5a587c"></path>
<path id="Path_14949" data-name="Path 14949" d="M1110.88,1138.02v21.45s24.13,58.31,0,58.31-42.9,6.05-42.9-2v-72.4Z" fill="#5a587c"></path>
<path id="Path_14950" data-name="Path 14950" d="M972.789,396.643a48.266,48.266,0,1,0-48.264-48.266A48.262,48.262,0,0,0,972.789,396.643Z" fill="#d6babe"></path>
<path id="Path_14951" data-name="Path 14951" d="M958.042,438.2s13.407,40.222,34.858,32.177l21.45-8.044,37.54,257.418s-29.5,42.9-72.4,16.088S958.042,438.2,958.042,438.2Z" fill="#5a587c"></path>
<path id="Path_14952" data-name="Path 14952" d="M995.581,430.161l12.069-25.473s71.05,33.517,81.78,44.243,10.72,26.814,10.72,26.814l-18.77,67.036s5.37,147.479,5.37,152.842,18.77,34.859,5.36,24.133-16.09-21.452-26.81-5.363-34.86,34.859-34.86,34.859Z" fill="#41b52a"></path>
<path id="Path_14953" data-name="Path 14953" d="M1089.43,623.223l-8.05,75.08s-48.26,42.9-37.53,45.584,16.08-8.044,16.08-8.044,18.77,18.77,29.5,8.044,37.54-112.62,37.54-112.62Z" fill="#d6babe"></path>
<path id="Path_14954" data-name="Path 14954" d="M973.818,280.163c-10.7-.382-22.15-.572-31.171,5.2A45.608,45.608,0,0,0,931.874,295.9c-8.786,11.108-16.378,25.084-13.114,38.865l3.79-1.478a24.823,24.823,0,0,1-2.394,10.635c.534-1.552,2.321.957,1.843,2.527l-4.176,13.7c6.864-2.517,15.4,2.578,16.448,9.814.477-15.912,2.128-34.157,15.035-43.474,6.509-4.7,14.747-6.133,22.673-7.407,7.312-1.175,14.977-2.295,21.981.112s12.97,9.57,11.38,16.8c3.23-1.112,6.84,1.139,8.44,4.158s1.68,6.583,1.72,10c3.45,2.433,7.36-2.4,8.77-6.373,3.29-9.331,6.22-19.263,4.44-29s-9.7-19.036-19.6-19.069a6.9,6.9,0,0,0,1.79-4.837l-8.16-.689a9.023,9.023,0,0,0,5.39-2.84C1004.86,290.954,979.113,280.352,973.818,280.163Z" fill="#5a587c"></path>
<path id="Path_14955" data-name="Path 14955" d="M971.449,422.117s-21.828-21.391-29.684-20.081-18.581,20.081-18.581,20.081-64.352,21.451-61.671,42.9,32.176,126.027,32.176,126.027,24.133,126.027,2.682,139.435,101.891,48.265,104.569,32.177,8.05-176.975,0-201.108S971.449,422.117,971.449,422.117Z" fill="#42b82b"></path>
<path id="Path_14956" data-name="Path 14956" d="M1065.3,465.02h33.15s23.15,101.894,25.84,112.62,8.04,61.673,5.36,61.673-56.31-10.726-56.31-2.682Z" fill="#43b82c"></path>
<path id="Path_14957" data-name="Path 14957" d="M1064.17,717.343H937.248c-12.386-56.98-13.421-112.033,0-164.632H1064.17C1043.69,604.364,1042.41,659.039,1064.17,717.343Z" fill="#f1e6e6"></path>
<path id="Path_14958" data-name="Path 14958" d="M885.646,647.356l37.538,16.089s72.4,10.725,72.4-18.771-72.4-13.407-72.4-13.407l-24.133-7.716Z" fill="#d6babe"></path>
<path id="Path_14959" data-name="Path 14959" d="M893.69,448.93l-32.177,8.044L837.381,599.09s-8.044,37.54,5.363,40.221,50.946,24.133,50.946,24.133,5.362-40.221,16.088-40.221l-26.814-21.452,16.088-93.85Z" fill="#40b828"></path>
<path id="Path_14960" data-name="Path 14960" d="M438.651,723.51H262.714v2.513H438.651Z" fill="#f1e6e6"></path>
<path id="Path_14961" data-name="Path 14961" d="M312.982,700.889h-2.513v23.249h2.513Z" fill="#f1e6e6"></path>
<path id="Path_14962" data-name="Path 14962" d="M389.64,700.889h-2.513v23.249h2.513Z" fill="#f1e6e6"></path>
<path id="Path_14963" data-name="Path 14963" d="M500.23,351.518H324.292v2.513H500.23Z" fill="#f1e6e6"></path>
<path id="Path_14964" data-name="Path 14964" d="M452.475,353.4h-2.513v23.25h2.513Z" fill="#f1e6e6"></path>
<path id="Path_14965" data-name="Path 14965" d="M375.817,353.4H373.3v23.25h2.514Z" fill="#f1e6e6"></path>
<path id="Path_14966" data-name="Path 14966" d="M677.424,599.094H501.486v2.513H677.424Z" fill="#f1e6e6"></path>
<path id="Path_14967" data-name="Path 14967" d="M629.67,600.979h-2.514v23.249h2.514Z" fill="#f1e6e6"></path>
<path id="Path_14968" data-name="Path 14968" d="M553.011,600.979H550.5v23.249h2.513Z" fill="#f1e6e6"></path>
<path id="Path_14969" data-name="Path 14969" d="M378.33,597.838H202.393v2.513H378.33Z" fill="#f1e6e6"></path>
<path id="Path_14970" data-name="Path 14970" d="M330.576,599.723h-2.514v23.249h2.514Z" fill="#f1e6e6"></path>
<path id="Path_14971" data-name="Path 14971" d="M253.917,599.723H251.4v23.249h2.513Z" fill="#f1e6e6"></path>
<path id="Path_14972" data-name="Path 14972" d="M589.455,472.164H413.518v2.514H589.455Z" fill="#f1e6e6"></path>
<path id="Path_14973" data-name="Path 14973" d="M463.785,449.543h-2.513v23.25h2.513Z" fill="#f1e6e6"></path>
<path id="Path_14974" data-name="Path 14974" d="M540.444,449.543h-2.513v23.25h2.513Z" fill="#f1e6e6"></path>
</g>
</g>
<path id="_290145_label_price_sale_shopping_tag_icon" data-name="290145_label_price_sale_shopping_tag_icon" d="M116.262,63,54.2,125.067a2.324,2.324,0,0,1-.259.392,2.859,2.859,0,0,1-3.893,0,2.5,2.5,0,0,1-.259-.392L4.158,79.435a2.438,2.438,0,0,1-.392-.259,2.859,2.859,0,0,1,0-3.893,2.636,2.636,0,0,1,.392-.259L66.22,12.965a2.667,2.667,0,0,1,2.11-1.075H79.372A15.548,15.548,0,0,1,83.919,1.863l.044.049A2.834,2.834,0,0,1,86.026,1a3.02,3.02,0,0,1,2.919,3.112,3.111,3.111,0,0,1-1.2,2.448A8.9,8.9,0,0,0,85.2,11.89H98.277a2.659,2.659,0,0,1,2.11,1.075l15.872,15.872a2.68,2.68,0,0,1,1.075,2.113V60.895A2.668,2.668,0,0,1,116.262,63ZM88.089,43.651a2.819,2.819,0,0,1-2.064.909,3.016,3.016,0,0,1-2.913-3.112,3.12,3.12,0,0,1,1.2-2.45,7.9,7.9,0,0,0,1.68-2.4,5.461,5.461,0,1,0,5.627,1.854C89.946,42.66,88.089,43.651,88.089,43.651Zm23.8-11.666L97.24,17.335H85.77a8.068,8.068,0,0,0,1.974,2.995h0a2.668,2.668,0,0,1,.346.25l.049-.049a15.836,15.836,0,0,1,4.7,11.582c0,.114-.027.215-.033.327A10.872,10.872,0,1,1,86.9,31a9.093,9.093,0,0,0-2.584-5.766,3.166,3.166,0,0,1-.351-.25l-.044.049a15.075,15.075,0,0,1-4.228-7.694H69.367L9.472,77.23l42.523,42.523,59.895-59.895V31.985ZM33.716,72.561a2.66,2.66,0,0,1,3.76,0L56.666,91.752a2.659,2.659,0,1,1-3.76,3.76L33.716,76.321A2.66,2.66,0,0,1,33.716,72.561Zm10.89-10.89a2.66,2.66,0,0,1,3.76,0L67.554,80.862a2.659,2.659,0,0,1-3.76,3.76L44.606,65.431A2.66,2.66,0,0,1,44.606,61.671Z" transform="translate(547 263)" fill="#41b52a" fill-rule="evenodd"></path>
</g>
</g>
</svg>