<svg xmlns="http://www.w3.org/2000/svg" xmlns:xlink="http://www.w3.org/1999/xlink" width="1500" height="1500" viewBox="0 0 1500 1500">
<defs>
<clipPath id="clip-undraw_online_groceries_a02y">
<rect width="1500" height="1500" id="id_101"></rect>
</clipPath>
</defs>
<g id="undraw_online_groceries_a02y" clip-path="url(#clip-undraw_online_groceries_a02y)">
<rect width="1500" height="1500" fill="#fff" id="id_102"></rect>
<g id="undraw_online_groceries_a02y-2" data-name="undraw_online_groceries_a02y">
<g id="undraw_online_groceries_a02y-3" data-name="undraw_online_groceries_a02y">
<rect id="Rectangle_2150" data-name="Rectangle 2150" width="1500" height="1500" fill="#fff" opacity="0"></rect>
<path id="Path_15025" data-name="Path 15025" d="M1268,1234.83H568.216v3.02H1268Z" fill="#5a587c"></path>
<path id="Path_15026" data-name="Path 15026" d="M1137.4,721.711a14.85,14.85,0,0,1,2.94,5.423,14.89,14.89,0,0,1-1.59,11.958,14.926,14.926,0,0,1-4.25,4.469l-72.42,49.711-31.89,21.255a8.762,8.762,0,0,1-13.35-5.1,8.676,8.676,0,0,1-.14-3.76,8.771,8.771,0,0,1,4.22-6.015l30.89-17.931,53.91-51.327-34.66-37.213,25.67-19.247Z" fill="#d6babe"></path>
<path id="Path_15027" data-name="Path 15027" d="M967.1,1189.78H949.385l-10.522-146.29,44.923-1.28Z" fill="#d6babe"></path>
<path id="Path_15028" data-name="Path 15028" d="M968.384,1237.26c-4.724,2.15-8.681-15.31-12.665-11.4-11.145,10.95-28.212,13.34-43.088,8.56l5.206-.06a6.991,6.991,0,0,1-2.439-1.38,6.843,6.843,0,0,1-1.7-2.22,6.965,6.965,0,0,1,4.582-9.79l11.852-2.96,18.611-32.72,19-1.29a45.391,45.391,0,0,1,8.4,38.72C974.413,1229.75,971.751,1235.72,968.384,1237.26Z" fill="#5a587c"></path>
<path id="Path_15029" data-name="Path 15029" d="M1085.06,1189.78h-17.72l-10.52-146.28,46.2-8.99Z" fill="#d6babe"></path>
<path id="Path_15030" data-name="Path 15030" d="M1086.34,1237.26c-4.72,2.15-8.68-15.31-12.67-11.4-11.14,10.95-28.21,13.34-43.08,8.56l5.2-.06a6.952,6.952,0,0,1-2.44-1.38,6.858,6.858,0,0,1-1.7-2.22,6.931,6.931,0,0,1-.25-5.48,7,7,0,0,1,4.83-4.31l11.86-2.96,18.61-32.72,20.28-2.57.51.84a52.252,52.252,0,0,1,5.61,42.75C1091.41,1231.71,1089.11,1235.99,1086.34,1237.26Z" fill="#5a587c"></path>
<path id="Path_15031" data-name="Path 15031" d="M1105.14,677.246c-16.29,2.266-27.57,11.186-32.16,28.979l-29.95-55.276a16.373,16.373,0,0,1,27.46-17.532Z" fill="#49cc25"></path>
<path id="Path_15032" data-name="Path 15032" d="M1136.52,1028.1c-72.81,32.2-147.322,36.17-223.327,15.39,27.755-107.615,60.526-204.926,60.325-284.863l74.442-6.416,11.46,18.167a402.8,402.8,0,0,1,55.32,141.065Z" fill="#5a587c"></path>
<path id="Path_15033" data-name="Path 15033" d="M1014.59,593.095a38.5,38.5,0,1,0-38.505-38.5A38.493,38.493,0,0,0,1014.59,593.095Z" fill="#d6babe"></path>
<path id="Path_15034" data-name="Path 15034" d="M1056.94,622.608l-47.48,2.567-7.71-42.346,38.51-6.415Z" fill="#d6babe"></path>
<path id="Path_15035" data-name="Path 15035" d="M1051.81,758.627l-52.025,1.465-26.267,3.668c-12.893-42.58-23.747-85.062,2.567-120.62l30.8-30.8,46.21-1.283.61.349a37.192,37.192,0,0,1,17.04,43.278C1059.29,691.94,1051.92,727.118,1051.81,758.627Z" fill="#47bd26"></path>
<path id="Path_15036" data-name="Path 15036" d="M972.234,877.963l-3.227,44.095a9.824,9.824,0,0,1-19.619-.951l1.027-43.144L982.5,756.06l1.284-74.425,35.934-1.283-2.56,85.973Z" fill="#d6babe"></path>
<path id="Path_15037" data-name="Path 15037" d="M1023.57,686.767c-15.23-6.194-29.463-4.12-42.351,8.983l1.765-62.839a16.372,16.372,0,0,1,32.546-1.431Z" fill="#48ba29"></path>
<path id="Path_15038" data-name="Path 15038" d="M1096.09,725.905H978.011c27.549-72.926,36.429-140.768,0-198.894.625-17.459,23.019-32.594,40.419-30.922,20.54,1.975,48.14,17.067,51.99,37.338Z" fill="#5a587c"></path>
<path id="Path_15039" data-name="Path 15039" d="M719.771,492.885h-5.386V345.375A85.391,85.391,0,0,0,628.99,260h-312.6A85.378,85.378,0,0,0,231,345.375V1154.63A85.394,85.394,0,0,0,316.395,1240h312.6a85.374,85.374,0,0,0,85.4-85.37V597.885h5.386Z" fill="#5a587c"></path>
<path id="Path_15040" data-name="Path 15040" d="M632.435,282.211h-40.8a30.294,30.294,0,0,1-28.052,41.731H384.5a30.29,30.29,0,0,1-28.051-41.731H318.336a63.762,63.762,0,0,0-63.773,63.757V1154.03a63.79,63.79,0,0,0,63.773,63.76h314.1a63.764,63.764,0,0,0,63.773-63.76V345.968a63.766,63.766,0,0,0-63.773-63.757Z" fill="#fff"></path>
<path id="Path_15041" data-name="Path 15041" d="M641.053,408.438H309.719V692.563H641.053Z" fill="#f1e6e6"></path>
<path id="Path_15042" data-name="Path 15042" d="M408.041,751.81A24.238,24.238,0,1,0,383.8,727.572,24.241,24.241,0,0,0,408.041,751.81Z" fill="#47bf26"></path>
<path id="Path_15043" data-name="Path 15043" d="M420.164,725.552h-10.1v-10.1h-4.04v10.1h-10.1v4.04h10.1v10.1h4.04v-10.1h10.1Z" fill="#fff"></path>
<path id="Path_15044" data-name="Path 15044" d="M535.995,751.81a24.238,24.238,0,1,0-24.244-24.238A24.24,24.24,0,0,0,535.995,751.81Z" fill="#45b825"></path>
<path id="Path_15045" data-name="Path 15045" d="M548.117,729.592v-4.039H523.873v4.039Z" fill="#fff"></path>
<path id="Path_15046" data-name="Path 15046" d="M487.743,443.871H461.559a3.472,3.472,0,0,0-3.471,3.471v11.49a3.471,3.471,0,0,0,3.471,3.47H465.9v17.216H483.4V462.3h4.339a3.469,3.469,0,0,0,3.471-3.47v-11.49a3.471,3.471,0,0,0-3.471-3.471Z" fill="#3ead1f"></path>
<path id="Path_15047" data-name="Path 15047" d="M513.969,549.029a134.553,134.553,0,0,1-23.419-79.792,2.839,2.839,0,0,0-2.216-2.833v-4.965H460.68v4.9H460.3a2.839,2.839,0,0,0-2.834,2.841c0,.069,0,.138.008.206q3.269,45.543-22.069,81.683a7.823,7.823,0,0,0-1.416,4.738l3.024,93.512a8.1,8.1,0,0,0,8.028,7.813h62.548a8.1,8.1,0,0,0,8.032-7.951l1.166-90.792A16.387,16.387,0,0,0,513.969,549.029Z" fill="#5a587c"></path>
<path id="Path_15048" data-name="Path 15048" d="M482.285,447.615a7.49,7.49,0,0,1-14.979,0" fill="#5a587c" opacity="0.2"></path>
<path id="Path_15049" data-name="Path 15049" d="M504.067,580.09h-7.574a19.88,19.88,0,0,0-39.3,0h-7.574a5.588,5.588,0,0,0-5.525,6.438l8.227,53.463h47.242l9.993-53.283a5.589,5.589,0,0,0-5.494-6.618Z" fill="#47b329"></path>
<path id="Path_15050" data-name="Path 15050" d="M641.053,808.367H309.719V1092.49H641.053Z" fill="#f1e6e6"></path>
<path id="Path_15051" data-name="Path 15051" d="M408.041,1151.74A24.24,24.24,0,1,0,383.8,1127.5,24.241,24.241,0,0,0,408.041,1151.74Z" fill="#43b324"></path>
<path id="Path_15052" data-name="Path 15052" d="M420.164,1125.48h-10.1v-10.1h-4.04v10.1h-10.1v4.04h10.1v10.1h4.04v-10.1h10.1Z" fill="#fff"></path>
<path id="Path_15053" data-name="Path 15053" d="M535.995,1151.74a24.24,24.24,0,1,0-24.244-24.24A24.24,24.24,0,0,0,535.995,1151.74Z" fill="#48ba29"></path>
<path id="Path_15054" data-name="Path 15054" d="M548.117,1129.52v-4.04H523.873v4.04Z" fill="#fff"></path>
<path id="Path_15055" data-name="Path 15055" d="M540.612,1010.21h.183a31.007,31.007,0,0,0,29.056-19.455,101.59,101.59,0,1,0-135.315,55.625,30.772,30.772,0,0,0,34.17-6.33,101.218,101.218,0,0,1,71.906-29.84Z" fill="#fff"></path>
<path id="Path_15056" data-name="Path 15056" d="M488.43,979.472a33.538,33.538,0,1,0-33.545-33.538A33.542,33.542,0,0,0,488.43,979.472Z" fill="#41b521"></path>
</g>
<path id="Path_2708" data-name="Path 2708" d="M811.515,315.452l19.625-15.7c-15.246-1.679-21.511,6.633-24.067,13.215-11.91-4.946-24.879,1.535-24.879,1.535L821.46,328.76a29.711,29.711,0,0,0-9.94-13.31Z" transform="translate(281.607 83.73)" fill="#45b825"></path>
<path id="Path_2709" data-name="Path 2709" d="M621.42,250.651l19.625-15.7c-15.246-1.679-21.511,6.633-24.067,13.215-11.91-4.946-24.879,1.535-24.879,1.535l39.267,14.256a29.714,29.714,0,0,0-9.946-13.308Z" transform="translate(210.047 58.635)" fill="#45b825"></path>
<path id="Path_2710" data-name="Path 2710" d="M886.181,266.317l19.625-15.7c-15.246-1.679-21.511,6.632-24.067,13.215-11.91-4.946-24.879,1.535-24.879,1.535l39.267,14.256a29.712,29.712,0,0,0-9.94-13.31Z" transform="translate(328.246 -11.805)" fill="#47bd26"></path>
</g>
</g>
</svg>