<svg xmlns="http://www.w3.org/2000/svg" xmlns:xlink="http://www.w3.org/1999/xlink" width="1500" height="1500" viewBox="0 0 1500 1500">
<defs>
<clipPath id="clip-undraw_successful_purchase_re_mpig">
<rect width="1500" height="1500" id="id_101"></rect>
</clipPath>
</defs>
<g id="undraw_successful_purchase_re_mpig" clip-path="url(#clip-undraw_successful_purchase_re_mpig)">
<rect width="1500" height="1500" fill="#fff" id="id_102"></rect>
<g id="undraw_successful_purchase_re_mpig-2" data-name="undraw_successful_purchase_re_mpig">
<path id="Path_539" data-name="Path 539" d="M1088.224,391.285V270.814H1021.3V192.56H975.99v78.255H909.062V391.285H871.994v-270.8H796.828V94.742H696.951V69H598.1V94.742H504.4v25.742H423.06V390.256H379.814V269.785H312.885V191.53H267.58v78.255H200.652V390.256H157.406V817.567h98.848V666.206h67.958V817.567H589.865V641.494H705.188V817.567H865.816v1.03h98.848V667.236h67.958V818.6h98.848V391.285ZM192.929,442.769h39.127v30.89H192.929Zm.515,86.492h39.127v30.89H193.444Zm39.642,117.382H193.959v-30.89h39.127ZM335.538,367.6H244.927V349.069h90.611Zm0-26.771H244.927V322.3h90.611Zm0-26.771H244.927V295.526h90.611Zm12.871,128.708h39.127v30.89H348.409Zm.515,86.492h39.127v30.89H348.924Zm39.642,117.382H349.438v-30.89h39.127Zm160.113-51.483H476.6V563.24h72.077Zm0-91.64H476.6V471.6h72.077Zm0-91.64H476.6v-31.92h72.077Zm0-91.64H476.6v-31.92h72.077Zm0-91.64H476.6v-31.92h72.077ZM683.565,595.159H611.488V563.24h72.077Zm0-91.64H611.488V471.6h72.077Zm0-91.64H611.488v-31.92h72.077Zm0-91.64H611.488v-31.92h72.077Zm0-91.64H611.488v-31.92h72.077ZM818.451,595.159H746.375V563.24h72.077Zm0-91.64H746.375V471.6h72.077Zm0-91.64H746.375v-31.92h72.077Zm0-91.64H746.375v-31.92h72.077Zm0-91.64H746.375v-31.92h72.077Zm82.888,215.2h39.127v30.89H901.339Zm.515,86.492h39.127v30.89H901.854ZM941.5,647.672H902.369v-30.89H941.5Zm102.452-279.039H953.337V350.1h90.611Zm0-26.771H953.337V323.327h90.611Zm0-26.771H953.337V296.556h90.611ZM1056.819,443.8h39.127v30.89h-39.127Zm.515,86.492h39.127v30.89h-39.127Zm39.642,117.382h-39.127v-30.89h39.127Z" transform="translate(35.701 376.895)" fill="#5a587c" opacity="0.114"></path>
<rect id="Rectangle_2160" data-name="Rectangle 2160" width="1500" height="1500" fill="#fff" opacity="0"></rect>
<path id="Path_15313" data-name="Path 15313" d="M374.9,1133.42c-37.189,20.06-53.154,62.62-53.154,62.62s44.331,10.05,81.52-10.01,53.154-62.62,53.154-62.62S412.093,1113.36,374.9,1133.42Z" fill="#5a587c"></path>
<path id="Path_15314" data-name="Path 15314" d="M387.139,1147.21c-21.781,36.2-65.045,50.15-65.045,50.15s-7.949-44.76,13.832-80.97,65.045-50.16,65.045-50.16S408.921,1111,387.139,1147.21Z" fill="#5a587c"></path>
<path id="Path_15315" data-name="Path 15315" d="M1075.44,324.676H943.49v78.141h131.95Z" fill="#5a587c"></path>
<path id="Path_15316" data-name="Path 15316" d="M812.767,337.275H744.735V313.548a34.016,34.016,0,1,1,68.032,0Zm-66.526-1.506h65.02V313.548a32.51,32.51,0,1,0-65.02,0Z" fill="#3f3d56"></path>
<path id="Path_15317" data-name="Path 15317" d="M846.406,334.013V324.74l-173.012,4.637L667.918,564.25l25.6,31.635Z" fill="#3f3d56"></path>
<path id="Path_15318" data-name="Path 15318" d="M877.032,330.748l-187.525,4.268,4.016,260.869,180.971-19.509Z" fill="#40b329"></path>
<path id="Path_15319" data-name="Path 15319" d="M1036.47,1175.94h-21.29l-10.12-82.11h31.41Z" fill="#d6babe"></path>
<path id="Path_15320" data-name="Path 15320" d="M1041.89,1196.58l-68.628-.01v-.86a26.708,26.708,0,0,1,26.714-26.72H1041.9Z" fill="#5a587c"></path>
<path id="Path_15321" data-name="Path 15321" d="M958.339,1175.94H937.053l-10.126-82.11h31.415Z" fill="#d6babe"></path>
<path id="Path_15322" data-name="Path 15322" d="M963.766,1196.58l-68.633-.01v-.86a26.708,26.708,0,0,1,26.714-26.72h41.92Z" fill="#5a587c"></path>
<path id="Path_15323" data-name="Path 15323" d="M895.827,661.781s-31.1,66.984-3,201.812,28.328,282.847,28.328,282.847l42.96.7,24.133-318.672,12.635,314.172h42.33l37.3-309.206s24.54-138.072-30.2-162.793Z" fill="#5a587c"></path>
<path id="Path_15324" data-name="Path 15324" d="M1044.69,425.391l-94.064-8.672c-29.5,21.5-46.053,60.125-42.654,99.974,4.608,54.029,3.049,128.384-33.93,160.686,0,0,100.786,79.557,190.318,4.08,0,0-30.62-82.026-9.6-114.783S1083.36,441.887,1044.69,425.391Z" fill="#3cb324"></path>
<path id="Path_15325" data-name="Path 15325" d="M764.8,291.886a18.652,18.652,0,0,0,19.862,20.581l124.2,115.922,22.259-33.912L802.042,291.193a18.753,18.753,0,0,0-37.238.693Z" fill="#d6babe"></path>
<path id="Path_15326" data-name="Path 15326" d="M885.67,410.481l29.463-30.27a8.363,8.363,0,0,1,12.641.761l25.543,33.483a23.228,23.228,0,0,1-32.5,33.194L886.769,423.1a8.365,8.365,0,0,1-1.1-12.618Z" fill="#3fb528"></path>
<path id="Path_15327" data-name="Path 15327" d="M1226.21,574.182a18.644,18.644,0,0,0-20.97-19.445L1074.79,445.895l-20.34,35.1,134.62,95.952a18.751,18.751,0,0,0,37.14-2.762Z" fill="#d6babe"></path>
<path id="Path_15328" data-name="Path 15328" d="M1098.95,462.487l-27.74,31.86a8.369,8.369,0,0,1-6.35,2.871,8.363,8.363,0,0,1-6.31-2.928l-27.37-32.013a23.229,23.229,0,0,1,30.61-34.948l35.36,22.62a8.355,8.355,0,0,1,3.51,9.412A8.491,8.491,0,0,1,1098.95,462.487Z" fill="#3fb029"></path>
<path id="Path_15329" data-name="Path 15329" d="M1239.47,620.205h-51.54V602.233a25.77,25.77,0,0,1,51.54,0Zm-50.4-1.141h49.25V602.233a24.625,24.625,0,0,0-49.25,0Z" fill="#3f3d56"></path>
<path id="Path_15330" data-name="Path 15330" d="M1264.95,617.733v-7.024l-131.06,3.513-4.14,177.909,19.39,23.963Z" fill="#3f3d56"></path>
<path id="Path_15331" data-name="Path 15331" d="M1288.14,615.26l-142.04,3.233,3.04,197.6,137.08-14.778Z" fill="#3eb027"></path>
<path id="Path_15332" data-name="Path 15332" d="M1004.26,401.081A55.567,55.567,0,1,0,948.7,345.514,55.567,55.567,0,0,0,1004.26,401.081Z" fill="#d6babe"></path>
<path id="Path_15333" data-name="Path 15333" d="M978.677,320.748c19.22,18.838,52.663,20.644,73.8,3.984a124.651,124.651,0,0,1-26.54,117.517c11.75,4.249,25.29,1.453,35.8-5.318s18.29-17.112,24.16-28.149c14.54-27.323,18.18-60.685,7.89-89.876s-34.92-53.4-64.86-61.235-64.264,1.844-84.265,25.461c-20.916,24.7-24.3,60.883-15.139,91.922s29.268,57.7,51.355,81.349a339.45,339.45,0,0,1-20.93-84.916c-1.124-9.962-1.78-20.231,1.034-29.854s9.74-18.586,19.393-21.289" fill="#5a587c"></path>
<path id="Path_15334" data-name="Path 15334" d="M1314.26,1199.85H652.773a1.735,1.735,0,0,1,0-3.47H1314.26a1.741,1.741,0,0,1,1.74,1.74,1.693,1.693,0,0,1-.51,1.22A1.716,1.716,0,0,1,1314.26,1199.85Z" fill="#3f3d56"></path>
<path id="Path_15335" data-name="Path 15335" d="M467,1199.85H185.736a1.735,1.735,0,0,1,0-3.47H467a1.735,1.735,0,0,1,0,3.47Z" fill="#3f3d56"></path>
<path id="Path_15336" data-name="Path 15336" d="M1211.69,1049.11h-51.54v-17.97a25.77,25.77,0,0,1,51.54,0Zm-50.4-1.14h49.25v-16.83a24.625,24.625,0,1,0-49.25,0Z" fill="#3f3d56"></path>
<path id="Path_15337" data-name="Path 15337" d="M1237.17,1046.64v-7.02l-131.06,3.51-4.14,177.91,19.39,23.96Z" fill="#3f3d56"></path>
<path id="Path_15338" data-name="Path 15338" d="M1260.37,1044.17l-142.05,3.23,3.04,197.6,137.08-14.78Z" fill="#3cad26"></path>
</g>
</g>
</svg>