<svg xmlns="http://www.w3.org/2000/svg" xmlns:xlink="http://www.w3.org/1999/xlink" width="1500" height="1500" viewBox="0 0 1500 1500">
<defs>
<clipPath id="clip-undraw_shopping_app_flsj">
<rect width="1500" height="1500" id="id_101"></rect>
</clipPath>
</defs>
<g id="undraw_shopping_app_flsj" clip-path="url(#clip-undraw_shopping_app_flsj)">
<rect width="1500" height="1500" fill="#fff" id="id_102"></rect>
<g id="undraw_shopping_app_flsj-2" data-name="undraw_shopping_app_flsj">
<rect id="Rectangle_2157" data-name="Rectangle 2157" width="1500" height="1500" fill="#fff" opacity="0"></rect>
<g id="_2216349_building_building_location_commercial_company_map_icon" data-name="2216349_building_building location_commercial_company_map_icon" transform="translate(668.673 336.332)" opacity="0.096">
<path id="Path_15433" data-name="Path 15433" d="M310.762,19.1H19.9V844.608H310.762ZM151.142,687.885h-30.15V591.68h30.15Zm0-193.963h-30.15V397.716h30.15Zm0-192.412h-30.15V205.3h30.15ZM242.48,687.885H212.33V591.68h30.15Zm0-193.963H212.33V397.716h30.15Zm0-192.412H212.33V205.3h30.15Z" transform="translate(0 0)" fill="#5a587c"></path>
</g>
<path id="Path_15176" data-name="Path 15176" d="M652.546,504.667h-5.031V366.8A79.771,79.771,0,0,0,567.75,287H275.765A79.789,79.789,0,0,0,196,366.8V1123.17a79.759,79.759,0,0,0,79.765,79.79H567.75a79.788,79.788,0,0,0,79.765-79.79V602.806h5.031Z" fill="#f1e6e6"></path>
<path id="Path_15177" data-name="Path 15177" d="M570.969,307.76H532.855a28.308,28.308,0,0,1-26.2,39H339.378a28.312,28.312,0,0,1-26.2-39h-35.6a59.584,59.584,0,0,0-59.567,59.59v755.26a59.554,59.554,0,0,0,59.567,59.59H570.969a59.576,59.576,0,0,0,59.567-59.59V367.35a59.573,59.573,0,0,0-59.567-59.59Z" fill="#fff"></path>
<path id="Path_15178" data-name="Path 15178" d="M337.835,461.3H320.317a2.322,2.322,0,0,0-2.322,2.323v7.692a2.323,2.323,0,0,0,2.322,2.324h2.9v11.525h11.712V473.636h2.9a2.323,2.323,0,0,0,2.322-2.324V463.62a2.322,2.322,0,0,0-2.322-2.323Z" fill="#f1e6e6"></path>
<path id="Path_15179" data-name="Path 15179" d="M355.38,531.693a90.124,90.124,0,0,1-15.668-53.417,1.9,1.9,0,0,0-1.482-1.9v-3.323h-18.5v3.277h-.255a1.9,1.9,0,0,0-1.9,1.9c0,.046,0,.092.005.138q2.187,30.488-14.765,54.682a5.235,5.235,0,0,0-.946,3.172l2.022,62.6a5.418,5.418,0,0,0,5.371,5.23h41.846a5.418,5.418,0,0,0,5.374-5.322l.78-60.78A10.974,10.974,0,0,0,355.38,531.693Z" fill="#f1e6e6"></path>
<path id="Path_15180" data-name="Path 15180" d="M348.756,552.486H312.332a3.741,3.741,0,0,0-3.7,4.31l5.5,35.791h31.606l6.685-35.67a3.741,3.741,0,0,0-3.675-4.431Z" fill="#fff"></path>
<path id="Path_15181" data-name="Path 15181" d="M532.838,648.824H515.32A2.323,2.323,0,0,0,513,651.148v7.691a2.323,2.323,0,0,0,2.322,2.324h2.9v11.525h11.712V661.163h2.9a2.323,2.323,0,0,0,2.322-2.324v-7.691a2.323,2.323,0,0,0-2.322-2.324Z" fill="#f1e6e6"></path>
<path id="Path_15182" data-name="Path 15182" d="M550.384,719.22A90.114,90.114,0,0,1,534.716,665.8a1.9,1.9,0,0,0-1.483-1.9v-3.324h-18.5v3.277h-.254a1.9,1.9,0,0,0-1.9,1.9c0,.046,0,.092.005.138q2.186,30.489-14.765,54.682a5.229,5.229,0,0,0-.947,3.172l2.023,62.6a5.418,5.418,0,0,0,5.371,5.231h41.846a5.422,5.422,0,0,0,5.374-5.323l.779-60.78A10.975,10.975,0,0,0,550.384,719.22Z" fill="#f1e6e6"></path>
<path id="Path_15183" data-name="Path 15183" d="M543.759,740.014H507.336a3.742,3.742,0,0,0-3.7,4.31l5.505,35.79h31.605l6.686-35.67a3.741,3.741,0,0,0-3.676-4.43Z" fill="#fff"></path>
<path id="Path_15184" data-name="Path 15184" d="M313.207,913.934H304.9a1.1,1.1,0,0,0-1.1,1.1v3.648a1.1,1.1,0,0,0,1.1,1.1h1.377v5.467h5.555v-5.467h1.377a1.1,1.1,0,0,0,1.1-1.1v-3.648a1.1,1.1,0,0,0-1.1-1.1Z" fill="#f1e6e6"></path>
<path id="Path_15185" data-name="Path 15185" d="M321.53,947.325a42.748,42.748,0,0,1-7.432-25.337.9.9,0,0,0-.7-.9v-1.576h-8.776v1.554H304.5a.923.923,0,0,0-.344.069.9.9,0,0,0-.555.833c0,.022,0,.044,0,.066a39.016,39.016,0,0,1-7,25.938,2.489,2.489,0,0,0-.45,1.505l.96,29.694a2.572,2.572,0,0,0,2.548,2.481h19.849a2.57,2.57,0,0,0,2.549-2.525l.37-28.831A5.207,5.207,0,0,0,321.53,947.325Z" fill="#f1e6e6"></path>
<path id="Path_15186" data-name="Path 15186" d="M318.673,958.24H299.734v9.474h18.939Z" fill="#fff"></path>
<path id="Path_15187" data-name="Path 15187" d="M351.887,913.934h-8.309a1.1,1.1,0,0,0-1.1,1.1v3.648a1.1,1.1,0,0,0,1.1,1.1h1.377v5.467h5.555v-5.467h1.377a1.1,1.1,0,0,0,1.1-1.1v-3.648a1.1,1.1,0,0,0-1.1-1.1Z" fill="#f1e6e6"></path>
<path id="Path_15188" data-name="Path 15188" d="M360.21,947.325a42.748,42.748,0,0,1-7.432-25.337.9.9,0,0,0-.7-.9v-1.576H343.3v1.554h-.121a.923.923,0,0,0-.344.069.9.9,0,0,0-.555.833c0,.022,0,.044,0,.066a39.016,39.016,0,0,1-7,25.938,2.482,2.482,0,0,0-.45,1.505l.96,29.694a2.572,2.572,0,0,0,2.548,2.481h19.849a2.57,2.57,0,0,0,2.549-2.525l.37-28.831A5.207,5.207,0,0,0,360.21,947.325Z" fill="#f1e6e6"></path>
<path id="Path_15189" data-name="Path 15189" d="M357.353,958.24H338.414v9.474h18.939Z" fill="#fff"></path>
<path id="Path_15190" data-name="Path 15190" d="M390.567,913.934h-8.309a1.1,1.1,0,0,0-1.1,1.1v3.648a1.1,1.1,0,0,0,1.1,1.1h1.377v5.467h5.556v-5.467h1.376a1.1,1.1,0,0,0,1.1-1.1v-3.648a1.1,1.1,0,0,0-1.1-1.1Z" fill="#f1e6e6"></path>
<path id="Path_15191" data-name="Path 15191" d="M398.89,947.325a42.755,42.755,0,0,1-7.432-25.337.9.9,0,0,0-.7-.9v-1.576h-8.776v1.554h-.121a.9.9,0,0,0-.636.265.9.9,0,0,0-.263.637c0,.022,0,.044,0,.066a39.011,39.011,0,0,1-7,25.938,2.481,2.481,0,0,0-.449,1.505l.959,29.694a2.572,2.572,0,0,0,2.548,2.481h19.849a2.572,2.572,0,0,0,2.55-2.525l.369-28.831A5.207,5.207,0,0,0,398.89,947.325Z" fill="#f1e6e6"></path>
<path id="Path_15192" data-name="Path 15192" d="M396.034,958.24h-18.94v9.474h18.94Z" fill="#fff"></path>
<path id="Path_15193" data-name="Path 15193" d="M502.406,841.387H484.888a2.323,2.323,0,0,0-2.322,2.323V851.4a2.322,2.322,0,0,0,2.322,2.323h2.9v11.526H499.5V853.725h2.9a2.322,2.322,0,0,0,2.322-2.323V843.71a2.317,2.317,0,0,0-.68-1.643,2.324,2.324,0,0,0-1.642-.68Z" fill="#f1e6e6"></path>
<path id="Path_15194" data-name="Path 15194" d="M519.952,911.783a90.117,90.117,0,0,1-15.668-53.417,1.9,1.9,0,0,0-1.483-1.9v-3.324H484.3v3.278h-.255a1.89,1.89,0,0,0-1.342.558,1.9,1.9,0,0,0-.554,1.343c0,.047,0,.093.005.139q2.186,30.488-14.765,54.682a5.236,5.236,0,0,0-.947,3.172l2.023,62.6a5.418,5.418,0,0,0,5.371,5.23h41.846a5.42,5.42,0,0,0,5.374-5.322l.779-60.78A10.972,10.972,0,0,0,519.952,911.783Z" fill="#f1e6e6"></path>
<path id="Path_15195" data-name="Path 15195" d="M513.327,932.576H476.9a3.741,3.741,0,0,0-3.7,4.31l5.5,35.791h31.6L517,937.007a3.741,3.741,0,0,0-3.676-4.431Z" fill="#fff"></path>
<path id="Path_15196" data-name="Path 15196" d="M511.969,612.117H407.548c7.3-39.486,5.621-87.166,0-138.443H511.969C506.5,524.951,504.863,572.631,511.969,612.117Z" fill="#f1e6e6"></path>
<path id="Path_15197" data-name="Path 15197" d="M460.388,564.292a25.172,25.172,0,1,0-25.162-25.171A25.167,25.167,0,0,0,460.388,564.292Z" fill="#fff"></path>
<path id="Path_15198" data-name="Path 15198" d="M416.355,795.869H311.934c7.3-39.486,5.621-87.166,0-138.443H416.355C410.883,708.7,409.248,756.383,416.355,795.869Z" fill="#f1e6e6"></path>
<path id="Path_15199" data-name="Path 15199" d="M364.773,748.044a25.172,25.172,0,1,0-25.161-25.171A25.167,25.167,0,0,0,364.773,748.044Z" fill="#fff"></path>
<path id="Path_15200" data-name="Path 15200" d="M571.1,620.928H466.678c7.3-39.486,5.621-87.167,0-138.444H571.1C565.628,533.762,563.993,581.442,571.1,620.928Z" fill="#f1e6e6"></path>
<path id="Path_15201" data-name="Path 15201" d="M519.518,573.1a25.172,25.172,0,1,0-25.162-25.172A25.167,25.167,0,0,0,519.518,573.1Z" fill="#fff"></path>
<path id="Path_15202" data-name="Path 15202" d="M571.1,614.635H466.678c7.3-39.486,5.621-87.167,0-138.444H571.1C565.628,527.469,563.993,575.149,571.1,614.635Z" fill="#f1e6e6"></path>
<path id="Path_15203" data-name="Path 15203" d="M519.518,566.81a25.172,25.172,0,1,0-25.162-25.172A25.167,25.167,0,0,0,519.518,566.81Z" fill="#fff"></path>
<path id="Path_15204" data-name="Path 15204" d="M571.1,620.928H466.678c7.3-39.486,5.621-87.167,0-138.444H571.1C565.628,533.762,563.993,581.442,571.1,620.928Z" fill="#f1e6e6"></path>
<path id="Path_15205" data-name="Path 15205" d="M519.518,573.1a25.172,25.172,0,1,0-25.162-25.172A25.167,25.167,0,0,0,519.518,573.1Z" fill="#fff"></path>
<path id="Path_15206" data-name="Path 15206" d="M595,604.566H252.8v37.758H595Z" fill="#f1e6e6"></path>
<path id="Path_15207" data-name="Path 15207" d="M595,792.094H252.8v37.757H595Z" fill="#f1e6e6"></path>
<path id="Path_15208" data-name="Path 15208" d="M595,979.621H252.8v37.759H595Z" fill="#f1e6e6"></path>
<path id="Path_15209" data-name="Path 15209" d="M1190.27,1132.8l-85.25-60.32c28.75-28.02,54.91-67.92,79.91-113.029l85.26,60.319C1236.12,1058.48,1207.26,1096.46,1190.27,1132.8Z" fill="#34b825"></path>
<path id="Path_15210" data-name="Path 15210" d="M1190.3,1068.58a25.175,25.175,0,1,0-25.16-25.17A25.169,25.169,0,0,0,1190.3,1068.58Z" fill="#fff"></path>
<path id="Path_15211" data-name="Path 15211" d="M779.026,857.539h-9.359a1.241,1.241,0,0,0-1.24,1.241v4.109a1.239,1.239,0,0,0,.766,1.147,1.223,1.223,0,0,0,.474.095h1.551v6.156h6.257v-6.156h1.551a1.241,1.241,0,0,0,1.24-1.242V858.78a1.241,1.241,0,0,0-1.24-1.241Z" fill="#f1e6e6"></path>
<path id="Path_15212" data-name="Path 15212" d="M788.4,895.147a48.141,48.141,0,0,1-8.37-28.536,1.014,1.014,0,0,0-.792-1.013v-1.776h-9.884v1.751h-.136a1.016,1.016,0,0,0-1.013,1.016c0,.025,0,.049,0,.074a43.938,43.938,0,0,1-7.888,29.212,2.8,2.8,0,0,0-.5,1.694l1.08,33.442a2.894,2.894,0,0,0,2.869,2.794h22.355a2.9,2.9,0,0,0,2.871-2.843l.416-32.47A5.852,5.852,0,0,0,788.4,895.147Z" fill="#37b329"></path>
<path id="Path_15213" data-name="Path 15213" d="M777.075,858.879a2.677,2.677,0,1,1-5.354,0" fill="#5a587c" opacity="0.2"></path>
<path id="Path_15214" data-name="Path 15214" d="M784.045,901.59H765.173v12.586h18.872Z" fill="#fff"></path>
<path id="Path_15215" data-name="Path 15215" d="M1075.17,988.184h-17.52a2.322,2.322,0,0,0-2.32,2.323V998.2a2.318,2.318,0,0,0,2.32,2.321h2.9v11.53h11.71v-11.53h2.91a2.323,2.323,0,0,0,1.64-.678,2.349,2.349,0,0,0,.68-1.643v-7.692a2.322,2.322,0,0,0-2.32-2.323Z" fill="#f1e6e6"></path>
<path id="Path_15216" data-name="Path 15216" d="M1092.71,1058.58a90.133,90.133,0,0,1-15.67-53.42,1.9,1.9,0,0,0-.4-1.21,1.836,1.836,0,0,0-1.08-.68v-3.327h-18.5v3.277h-.25a1.836,1.836,0,0,0-.73.15,1.814,1.814,0,0,0-.62.41,2.03,2.03,0,0,0-.41.62,1.961,1.961,0,0,0-.14.72v.14q2.19,30.495-14.76,54.68a5.284,5.284,0,0,0-.95,3.17l2.03,62.6a5.4,5.4,0,0,0,1.63,3.7,5.483,5.483,0,0,0,3.74,1.54h41.84a5.43,5.43,0,0,0,5.38-5.33l.78-60.78A11,11,0,0,0,1092.71,1058.58Z" fill="#39b82b"></path>
<path id="Path_15217" data-name="Path 15217" d="M1071.51,990.689a5.01,5.01,0,0,1-10.02,0" fill="#5a587c" opacity="0.2"></path>
<path id="Path_15218" data-name="Path 15218" d="M1086.09,1079.38h-36.43a3.512,3.512,0,0,0-1.56.34,3.75,3.75,0,0,0-2.03,2.37,3.721,3.721,0,0,0-.1,1.59l5.5,35.8h31.61l6.68-35.67a3.736,3.736,0,0,0-.05-1.63,3.814,3.814,0,0,0-2.03-2.45A3.8,3.8,0,0,0,1086.09,1079.38Z" fill="#fff"></path>
<path id="Path_15219" data-name="Path 15219" d="M1025.19,1132.7H920.765c7.3-39.48,5.621-87.17,0-138.442H1025.19C1019.71,1045.53,1018.08,1093.22,1025.19,1132.7Z" fill="#3ab82c"></path>
<path id="Path_15220" data-name="Path 15220" d="M973.6,1084.88a25.175,25.175,0,1,0-25.162-25.18A25.169,25.169,0,0,0,973.6,1084.88Z" fill="#fff"></path>
<path id="Path_15221" data-name="Path 15221" d="M598.078,697l23.442-2.132,14.918-36.241L609.8,643.705Z" fill="#d6babe"></path>
<path id="Path_15222" data-name="Path 15222" d="M813.211,796.5a13.221,13.221,0,0,0-11.481-18.12l-36.4-2.171-5.359,17.827,37.469,10.294a13.213,13.213,0,0,0,15.768-7.83Z" fill="#d6babe"></path>
<path id="Path_15223" data-name="Path 15223" d="M774.13,804.625l-.4-33.452-80.845-12.9L630.6,686.81a20.389,20.389,0,1,0-30.121,27.473l51.382,63.258Z" fill="#38b52a"></path>
<path id="Path_15224" data-name="Path 15224" d="M579.964,1180.94h21.311l52.858-239.076,54.76,73.856,31.967,159.89H761.1L756.843,1004,685.452,820.652H615.127c-19.219,34.794-34.294,70.661-17.049,107.661Z" fill="#5a587c"></path>
<path id="Path_15225" data-name="Path 15225" d="M727.8,1195.46a5.565,5.565,0,0,0,.555,4.55,5.444,5.444,0,0,0,1.612,1.7,5.543,5.543,0,0,0,2.169.89l52.148,9.26a8.581,8.581,0,0,0,5.563-16.03,79.751,79.751,0,0,1-28.759-25.01c-5.731,5.34-12.137,4.84-18.939.9l-7.215.9Z" fill="#5a587c"></path>
<path id="Path_15226" data-name="Path 15226" d="M570.1,1195.46a5.584,5.584,0,0,0-.212,2.34,5.516,5.516,0,0,0,.768,2.21,5.43,5.43,0,0,0,1.611,1.7,5.544,5.544,0,0,0,2.169.89l52.148,9.26a8.581,8.581,0,0,0,5.563-16.03,79.751,79.751,0,0,1-28.759-25.01c-5.731,5.34-12.137,4.84-18.939.9l-7.215.9Z" fill="#5a587c"></path>
<path id="Path_15227" data-name="Path 15227" d="M636.97,671.953a29.846,29.846,0,1,0-29.835-29.847A29.841,29.841,0,0,0,636.97,671.953Z" fill="#d6babe"></path>
<path id="Path_15228" data-name="Path 15228" d="M610.332,828.646l77.783-2.132-22.843-71.922c14.2-22.767-.091-45.511-20.311-68.25l-15.983-10.659-25.572-2.132A62.814,62.814,0,0,0,586.5,717.3C587.006,752.036,593.154,789.847,610.332,828.646Z" fill="#36b528"></path>
<path id="Path_15229" data-name="Path 15229" d="M789.044,877.058a13.225,13.225,0,0,0-3.431-21.178l-32.608-16.319-11.937,14.281,30.4,24.209a13.214,13.214,0,0,0,17.577-.993Z" fill="#d6babe"></path>
<path id="Path_15230" data-name="Path 15230" d="M749.916,869.153,762.7,838.241,693.451,794.56l-29.16-90.207a20.387,20.387,0,1,0-38.5,13.4l22.364,78.378Z" fill="#39ba2b"></path>
<path id="Path_15231" data-name="Path 15231" d="M587.955,630.38c0,11.614,7.539,29.6,17.049,37.308,6.4,5.188,14.854,4.969,18.114-2.132,3.344-7.284,14.872-24.405,35.163-35.176,27.048-14.358-9.593-38.922-35.163-35.176C603.9,598.019,587.955,610.953,587.955,630.38Z" fill="#5a587c"></path>
<path id="Path_15232" data-name="Path 15232" d="M606.069,614.392a21.319,21.319,0,1,0-21.31-21.319A21.315,21.315,0,0,0,606.069,614.392Z" fill="#5a587c"></path>
<path id="Path_15233" data-name="Path 15233" d="M630.577,585.61a21.3,21.3,0,0,0-19.713-21.238c.53-.04,1.059-.081,1.6-.081a21.319,21.319,0,0,1,0,42.638c-.54,0-1.069-.041-1.6-.081a21.3,21.3,0,0,0,19.713-21.238Z" fill="#5a587c"></path>
<path id="Path_15234" data-name="Path 15234" d="M637.5,652.766c2.648,0,4.795-2.864,4.795-6.4s-2.147-6.4-4.795-6.4-4.795,2.863-4.795,6.4S634.855,652.766,637.5,652.766Z" fill="#d6babe"></path>
<path id="Path_15235" data-name="Path 15235" d="M1241.3,1141.85H909.561l-70.25-332.223H779.358V794.721H851.39l70.249,332.219H1241.3Z" fill="#5a587c"></path>
<path id="Path_15236" data-name="Path 15236" d="M958.175,1202.54a31.945,31.945,0,1,0-31.931-31.95A31.938,31.938,0,0,0,958.175,1202.54Z" fill="#5a587c"></path>
<path id="Path_15237" data-name="Path 15237" d="M1196.6,1202.54a31.945,31.945,0,1,0-31.93-31.95A31.94,31.94,0,0,0,1196.6,1202.54Z" fill="#5a587c"></path>
<path id="Path_15238" data-name="Path 15238" d="M1235.25,1134.82H912.488L855.539,853.283H1288.7a15.3,15.3,0,0,1,15.11,17.684l-53.44,250.923a15.224,15.224,0,0,1-15.12,12.93Zm-319.257-4.26H1235.25a10.97,10.97,0,0,0,10.91-9.33L1299.61,870.3a11.083,11.083,0,0,0-.29-4.723,10.936,10.936,0,0,0-2.23-4.172,11.026,11.026,0,0,0-8.39-3.868H860.707Z" fill="#5a587c"></path>
<path id="Path_15239" data-name="Path 15239" d="M975.235,1133.92l-37.3-278.16,4.2-.694,37.3,278.164Z" fill="#5a587c"></path>
<path id="Path_15240" data-name="Path 15240" d="M1182.61,1131.79l-4.2-.68,36.2-276.038,4.21.682Z" fill="#5a587c"></path>
<path id="Path_15241" data-name="Path 15241" d="M1083.81,855.414h-4.26V1133.58h4.26Z" fill="#5a587c"></path>
<path id="Path_15242" data-name="Path 15242" d="M877.287,929.95l-.01,4.259,412.123,1,.01-4.259Z" fill="#5a587c"></path>
<path id="Path_15243" data-name="Path 15243" d="M1260.33,1061.52,898.269,1064l.029,4.26,362.062-2.48Z" fill="#5a587c"></path>
<path id="Path_15244" data-name="Path 15244" d="M785.745,812.821c12.932,0,23.416-5.721,23.416-12.778s-10.484-12.777-23.416-12.777-23.417,5.72-23.417,12.777S772.812,812.821,785.745,812.821Z" fill="#5a587c"></path>
</g>
</g>
</svg>