<svg xmlns="http://www.w3.org/2000/svg" xmlns:xlink="http://www.w3.org/1999/xlink" width="1500" height="1500" viewBox="0 0 1500 1500">
<defs>
<clipPath id="clip-undraw_business_chat_ldig">
<rect width="1500" height="1500" id="id_101"></rect>
</clipPath>
</defs>
<g id="undraw_business_chat_ldig" clip-path="url(#clip-undraw_business_chat_ldig)">
<rect width="1500" height="1500" fill="#fff" id="id_102"></rect>
<g id="undraw_business_chat_ldig-2" data-name="undraw_business_chat_ldig">
<rect id="Rectangle_15" data-name="Rectangle 15" width="1397.969" height="836.724" transform="translate(51.597 361.391)" fill="#f8eee7"></rect>
<rect id="Rectangle_16" data-name="Rectangle 16" width="1345.553" height="790.205" transform="translate(77.806 385.18)" fill="#fff"></rect>
<path id="Rectangle_17" data-name="Rectangle 17" d="M22,0H1375.969a22,22,0,0,1,22,22V59.391a0,0,0,0,1,0,0H0a0,0,0,0,1,0,0V22A22,22,0,0,1,22,0Z" transform="translate(51 296)" fill="#40c934"></path>
<circle id="Ellipse_143" data-name="Ellipse 143" cx="11.008" cy="11.008" r="11.008" transform="translate(84.127 315.356)" fill="#fff"></circle>
<circle id="Ellipse_144" data-name="Ellipse 144" cx="11.008" cy="11.008" r="11.008" transform="translate(125.909 315.356)" fill="#fff"></circle>
<circle id="Ellipse_145" data-name="Ellipse 145" cx="11.008" cy="11.008" r="11.008" transform="translate(167.691 315.356)" fill="#fff"></circle>
<path id="Path_333" data-name="Path 333" d="M454.49,370.19s5.054,69.729,2.75,73.829S497.7,521.775,497.7,521.775L566.07,457.7s-4.14-88.635.264-92.634S454.49,370.19,454.49,370.19Z" transform="translate(43.638 237.065)" fill="#c95636"></path>
<circle id="Ellipse_146" data-name="Ellipse 146" cx="79.92" cy="79.92" r="79.92" transform="translate(476.349 500.665)" fill="#c95636"></circle>
<path id="Path_334" data-name="Path 334" d="M518.822,443.535l-8.2-4.607-40.46-36.441s-4.03-1.5-4.639,11.1l-.609,12.6-26.122,17.688-1.2,286.3,180.66,8.728,7.6-288.1-40.8-27.238-7.476-15.936-45.955,32.305Z" transform="translate(31.255 265.193)" fill="#b4631c"></path>
<path id="Path_335" data-name="Path 335" d="M745.5,471.271,725.516,762.7H423.82c-38.446-45.512-69.151-279.7-36.384-286.638,10.7-3.7,83.285-26.5,83.285-26.5s21.683-13.691,28.6-25.974A95.228,95.228,0,0,1,514.8,403.634l.042-.042.021-.042c.168-.168.316-.337.484-.484a.282.282,0,0,1,.147-.126c.21-.231.421-.442.652-.652v.315L514.613,455.9l57.795,198.621s16.278-119.227,32.809-156.327c9.317-20.905,14.2-46.711,16.678-65.261,1.914-14.364,2.4-24.354,2.4-24.354s.084.105.231.294v.021a.021.021,0,0,0,.021.021c.252.315.652.841,1.241,1.556l.021.021c4.837,6.057,20.359,24.4,30.874,24.9,12.6.61,47.195,25.448,47.195,25.448C720.784,459.536,745.5,471.271,745.5,471.271Z" transform="translate(-15.664 265.089)" fill="#3fc930"></path>
<path id="Path_336" data-name="Path 336" d="M532.167,600.124s22.763-78.913,55.968-68.886-3.248,67.222-3.248,67.222Z" transform="translate(100.567 358.952)" fill="#c95636"></path>
<path id="Path_337" data-name="Path 337" d="M481.661,640.295s-74.219-35.169-58.978-66.328,65.823,14.027,65.823,14.027Z" transform="translate(18.814 382.882)" fill="#c95636"></path>
<path id="Path_338" data-name="Path 338" d="M490.6,640.424H472.788a180.771,180.771,0,0,0-21.747-4c-1.682-.084-2.229-2.713-2.019-6.877a130.759,130.759,0,0,1,3.386-20.422c2.545-11.357,5.952-23.639,8.139-31.463v-.021c1.283-4.564,2.124-7.592,2.145-8.034.063-1.388,11.715.526,19.749,2,4.227.778,7.445,1.43,7.445,1.43l.4,37.92Z" transform="translate(39.6 387.369)" fill="#f8eee7"></path>
<path id="Path_339" data-name="Path 339" d="M715.194,699.024c-5.132,14.533-8.833,26.037-11.862,34.807H470.03c-.778-8.034-1.767-19.033-2.4-29.928-1.03-17.435-1.2-34.6,1.641-38.887a2.007,2.007,0,0,1,1.262-.988c5.447-1.073,66.985-2.04,110.562-2.608,6.057-.063,11.757-.126,16.93-.189,15.71-.189,26.352-.294,26.352-.294s.841-28.771,3.407-65.45c4.522-64.482,14.406-153.425,34.555-153.8l14.722.715s8.392.4,11.988,13.208S729.832,657.613,715.194,699.024Z" transform="translate(52.768 293.962)" fill="#40c934"></path>
<path id="Path_340" data-name="Path 340" d="M464,328.417l-14.88-6.24s33.2-30.14,77.129-25.257L514.454,283.93s30.825-9.552,56.967,20.694c13.742,15.9,29.629,34.576,39.1,55.208l16.221.784-7.424,13.213,23.041,14.685-24.2-3.607a68.4,68.4,0,0,1-3.995,34.956l-6.239,14.88s-19.9-45.126-19.636-50.634l-.665,13.769s-14.548-13.124-14.149-21.386l-8.727,9.239-3.4-15.346-51.679,12.685,8.86-11.993-31.869,2.6,13.125-14.548S463.114,375.3,461.005,390.38s-20.94,33.492-20.94,33.492l-7.6-14.169S423.07,347.142,464,328.417Z" transform="translate(26.816 177.294)"></path>
<path id="Path_341" data-name="Path 341" d="M1339.685,862.534H286.2V268.442H1339.685ZM289.669,859.069h1046.55V271.908H289.669Z" transform="translate(-79.701 166.992)" fill="#e8cfbe"></path>
<path id="Path_342" data-name="Path 342" d="M808.784,318.428c-9.961-16.832-29.669-17.616-29.669-17.616s-19.2-2.456-31.523,23.179c-11.483,23.894-27.33,46.963-2.551,52.557l4.476-13.93,2.772,14.968a96.939,96.939,0,0,0,10.6.181c26.536-.857,51.807.251,50.994-9.272C812.8,355.836,818.369,334.623,808.784,318.428Z" transform="translate(246.967 190.669)"></path>
<path id="Path_343" data-name="Path 343" d="M760.81,353.64a10.51,10.51,0,0,1-.908,5.537c-1.866,3.261-6.422,3.749-9.163,6.319-2.882,2.7-3.208,7.089-3.346,11.037a30.513,30.513,0,0,0,1.241,12.238,29.751,29.751,0,0,0,3.476,5.971q2.51,3.618,5.066,7.2a31.087,31.087,0,0,0,3.033,3.807,25.836,25.836,0,0,0,11.418,6.057,14.271,14.271,0,0,0,8.3.549,15.886,15.886,0,0,0,4.824-2.967,25.853,25.853,0,0,0,5.461-5.293,24.642,24.642,0,0,0,3.339-11.287,243.538,243.538,0,0,0,1.605-35.086,8.6,8.6,0,0,0-.67-3.728c-1.388-2.71-5.1-3.288-7.063-5.619-1.674-1.993-1.743-4.837-1.728-7.44l.036-6.626a2.776,2.776,0,0,0-.322-1.614,2.735,2.735,0,0,0-1.9-.887,64.068,64.068,0,0,0-12.466-.834c-3.383.1-9.874-.18-12.8,1.7-2.655,1.71.669,6.434,1.284,9.087a59.209,59.209,0,0,1,1.284,11.868Z" transform="translate(258.193 212.804)" fill="#c95636"></path>
<circle id="Ellipse_147" data-name="Ellipse 147" cx="26.782" cy="26.782" r="26.782" transform="translate(999.985 501.5)" fill="#c95636"></circle>
<path id="Path_344" data-name="Path 344" d="M759.46,350.933c-2.894-1.679-6.823-.319-8.931,2.279a16.185,16.185,0,0,0-2.938,9.423,61.516,61.516,0,0,1-.716,10c-1.608,7.226-7.577,13.167-8.021,20.556-.437,7.27,4.548,13.6,7,20.46a34.121,34.121,0,0,1,1.828,13.318,5.341,5.341,0,0,0,.858,4.156,4.741,4.741,0,0,0,1.854,1c11.834,4.164,24.617,4.524,37.158,4.841l20.714.525a6.6,6.6,0,0,0,3.658-.613c1.858-1.139,2.107-3.693,2.139-5.873.272-18.772-.526-37.542-1.325-56.3a119.524,119.524,0,0,0-2.025-20.287,5.821,5.821,0,0,0-2.532-4.324,5.588,5.588,0,0,0-4.269.285c-6.42,2.388-26.826,11.539-28.837,8.282C772.739,354.877,758.324,353.762,759.46,350.933Z" transform="translate(252.03 226.617)" fill="#b4631c"></path>
<path id="Path_345" data-name="Path 345" d="M768.73,355.83c-.527.373-1.046.768-1.544,1.185a29.893,29.893,0,0,0-4.975,5.239,41.508,41.508,0,0,0-5.634,10.631,102.947,102.947,0,0,0-4.492,20.736,50.043,50.043,0,0,0-.71,7.815c.154,9.629,5.846,18.548,5.853,28.185,0,.366-.007.724-.029,1.09a31.662,31.662,0,0,1-.556,4.7c-.417,2.261-1.017,4.493-1.61,6.717a64.149,64.149,0,0,1-6.015,16.251c-.293.5-.607.988-.929,1.463H727.6c.161-.49.329-.973.49-1.463q5.235-15.508,10.463-31.009c1.068-3.161,2.136-6.336,2.89-9.585a90.788,90.788,0,0,0,1.763-12.168q1.208-12.72,1.588-25.492a31,31,0,0,1,1.149-9.08,29.7,29.7,0,0,1,3.644-6.644l6.344-9.548a14.668,14.668,0,0,1,4.229-4.7c1.515-.929,3.315-1.266,4.91-2.049a25.081,25.081,0,0,0,2.883-1.91c2.385-1.69,5.188-3.468,7.244-1.741a4.032,4.032,0,0,1,.849.973,4.894,4.894,0,0,1,.315.563C778.337,350.262,771.386,353.95,768.73,355.83Z" transform="translate(243.804 222.183)" fill="#3dbf31"></path>
<path id="Path_346" data-name="Path 346" d="M830.412,423.072H735.527c.512-.468,1.017-.959,1.507-1.463.073-.073.139-.146.212-.219,3.629-3.768,4.456-8.4,6.278-13.3q2.052-5.543,4.1-11.078a5.73,5.73,0,0,1,1.046-1.968,3.246,3.246,0,0,1,1.442-.863,5.6,5.6,0,0,1,1.273-.234,14.17,14.17,0,0,1,1.851,0q25.54,1.317,51.043,3.212l6.585.5c1.793,1.332,3.563,2.744,5.254,4.237a47.021,47.021,0,0,1,12.988,17.231c.329.812.629,1.639.878,2.48C830.149,422.092,830.288,422.582,830.412,423.072Z" transform="translate(249.611 258.951)" fill="#e89e41"></path>
<path id="Path_347" data-name="Path 347" d="M599.224,122.885l-19.469-10.2-26.888,4.171L547.3,141.429l13.848-.532,3.868-9.027v8.876l6.391-.244,3.708-14.371,2.317,15.3,22.715-.464Z" transform="translate(452.123 384.589)"></path>
<path id="Path_348" data-name="Path 348" d="M806.753,461.456H785.329c-.154-.483-.3-.973-.439-1.463a115.044,115.044,0,0,1-3.322-16.595c-.227-1.6-.424-3.212-.607-4.815-.117-1.017-.227-2.027-.337-3.044-1.229-11.3-2.173-22.7-5.627-33.519-.417-1.31-.871-2.612-1.31-3.914a46.169,46.169,0,0,1-1.9-6.885c-.937-5.356-.234-10.9-1.2-16.251-.541-2.985-1.617-5.612-2.268-8.349a16.908,16.908,0,0,1-.483-5.056,10.889,10.889,0,0,1,5.7-2.824,3,3,0,0,0,2.02-.812,2.535,2.535,0,0,0,.337-1.493,71.671,71.671,0,0,0-.593-10.324c-.146-1.2-.329-2.4-.549-3.593-.007-.059-.022-.11-.029-.168a14.172,14.172,0,0,1,5.736-.776c2.115.007,4.222.007,6.329.015q5.85.022,11.7.036a25.76,25.76,0,0,1,10.682,1.544,17,17,0,0,1,7.712,7.9,45.485,45.485,0,0,1,3.483,10.661,14.279,14.279,0,0,1,.366,3.081c.161,8.239-5.985,16.536-6.6,24.958-.2,2.729.029,5.48-.219,8.21s-.98,5.415-1.112,8.151c-.007.139-.015.285-.015.424a29.338,29.338,0,0,0,2.159,10.412c1.858,5.217,4.12,10.273,6.453,15.3,2.254,4.866,4.566,9.709,6.644,14.641a25.07,25.07,0,0,1,2.158,7.236,10.04,10.04,0,0,1-1.1,5.846,6.855,6.855,0,0,1-.87,1.237l-.015.015c-.066.073-.132.146-.2.212H806.753Z" transform="translate(273.271 220.566)" fill="#3cbd2d"></path>
<path id="Path_349" data-name="Path 349" d="M808.393,408.626a8.11,8.11,0,0,1-.783,2.8c-.037.088-.073.168-.11.256-.424,1-.856,1.99-1.3,2.985-.219.483-.439.973-.666,1.463H793.415a13.564,13.564,0,0,0,1.214-1.463c1.859-2.583,2.934-5.722,4.829-8.51a6.566,6.566,0,0,1,.885-1.054C803.381,402.165,808.583,402.765,808.393,408.626Z" transform="translate(292.038 265.89)" fill="#c95636"></path>
<path id="Path_350" data-name="Path 350" d="M820.389,456.877a14.34,14.34,0,0,0,.388-1.463c.088-.388.161-.768.22-1.156.388-2.554.38-5.166.988-7.675.856-3.593,3.424-7.844,1.31-10.866a11.48,11.48,0,0,0,4.544-2.034,3.907,3.907,0,0,0,1.229-4.493c-.754-1.471-2.8-2.444-2.517-4.076a3.888,3.888,0,0,1,.717-1.419,10.631,10.631,0,0,0-.183-11.663c-.666-.951-1.485-1.785-2.093-2.78a16.581,16.581,0,0,1-1.515-3.856,71.824,71.824,0,0,0-9.241-19.155,12.71,12.71,0,0,1-2.042-3.776,15.6,15.6,0,0,1-.161-4.485,30.067,30.067,0,0,0-5.246-16.661c-.234-.366-.476-.724-.717-1.083a96.5,96.5,0,0,0-10.683-12.446,6.85,6.85,0,0,0-3.761,2.729,8.11,8.11,0,0,0-.724,2.722c-1.039,7.244-1.939,14.531-2.641,21.812a53.331,53.331,0,0,0-.293,11.063,17.857,17.857,0,0,0,4.156,10.083c1.559,1.712,3.534,2.985,5.224,4.566q.406.384.79.79a25.909,25.909,0,0,1,3.227,4.237,36.526,36.526,0,0,1,5.371,21.9,35.6,35.6,0,0,1-.549,4.127,17.072,17.072,0,0,1-1.946,5.561c-.768,1.266-1.778,2.371-2.473,3.68a4.654,4.654,0,0,0-.336,4.251,8.657,8.657,0,0,1,3.022.541,12.826,12.826,0,0,1,5.707,4.354,18.974,18.974,0,0,1,1.449,2.224,27.366,27.366,0,0,1,1.449,2.985c.175.4.344.819.5,1.237a1.211,1.211,0,0,1,.088.227Z" transform="translate(287.929 225.146)" fill="#37ba29"></path>
<path id="Path_351" data-name="Path 351" d="M1034.257,503.1H655.333V288.442h378.924ZM658.8,499.637h371.993V291.908H658.8Z" transform="translate(190.837 181.65)" fill="#e8cfbe"></path>
<circle id="Ellipse_148" data-name="Ellipse 148" cx="38.986" cy="38.986" r="38.986" transform="translate(711.021 1060.729)" fill="#f8eee7"></circle>
<circle id="Ellipse_149" data-name="Ellipse 149" cx="29.89" cy="29.89" r="29.89" transform="translate(720.119 1069.826)" fill="#fff"></circle>
<path id="Path_352" data-name="Path 352" d="M621.714,675a1.353,1.353,0,0,1-.962-.4L590.8,644.654a1.361,1.361,0,0,1,1.925-1.925l29.951,29.951a1.361,1.361,0,0,1-.962,2.324Z" transform="translate(143.268 441.036)" fill="#38bd2a"></path>
<path id="Path_353" data-name="Path 353" d="M601.434,656.592l-4.407-4.407a.17.17,0,0,0-.289.144,5.455,5.455,0,0,0,4.552,4.551.17.17,0,0,0,.144-.289Z" transform="translate(147.892 448.204)" fill="#ff8e28"></path>
<path id="Path_354" data-name="Path 354" d="M600.254,648.953l4.413,4.412a.17.17,0,0,0,.289-.144,5.457,5.457,0,0,0-4.557-4.556.17.17,0,0,0-.146.288Z" transform="translate(150.433 445.658)" fill="#ff8e28"></path>
<path id="Path_355" data-name="Path 355" d="M622.531,659a2.74,2.74,0,0,0-.009-2.958,28.841,28.841,0,0,0-8.447-8.554,21.4,21.4,0,0,0-11.568-3.58,19.273,19.273,0,0,0-6.111,1,.341.341,0,0,0-.133.564l4.02,4.02a.34.34,0,0,0,.325.089,8.168,8.168,0,0,1,9.87,9.87.34.34,0,0,0,.089.324l5.782,5.786a.34.34,0,0,0,.46.02A29.252,29.252,0,0,0,622.531,659Z" transform="translate(147.472 442.177)" fill="#3fbd31"></path>
<path id="Path_356" data-name="Path 356" d="M608.477,663.337a8.169,8.169,0,0,1-7.939-10.094.34.34,0,0,0-.089-.324l-5.687-5.69a.34.34,0,0,0-.46-.02,34.011,34.011,0,0,0-5.758,6.443,2.716,2.716,0,0,0-.054,3.024,28.422,28.422,0,0,0,8.362,8.564,21.086,21.086,0,0,0,11.6,3.542,20.269,20.269,0,0,0,6.181-.983.34.34,0,0,0,.137-.565l-4.039-4.038a.341.341,0,0,0-.324-.089A8.159,8.159,0,0,1,608.477,663.337Z" transform="translate(141.529 444.534)" fill="#42bd35"></path>
<circle id="Ellipse_150" data-name="Ellipse 150" cx="38.986" cy="38.986" r="38.986" transform="translate(563.103 1060.729)" fill="#f8eee7"></circle>
<circle id="Ellipse_151" data-name="Ellipse 151" cx="29.89" cy="29.89" r="29.89" transform="translate(572.199 1069.826)" fill="#fff"></circle>
<path id="Path_357" data-name="Path 357" d="M534.024,678.892a16.033,16.033,0,0,1-7.488-2.553,48.682,48.682,0,0,1-11.76-8.8,44.623,44.623,0,0,1-8.831-11.757c-3.135-5.7-2.6-8.689-2-9.966a7.957,7.957,0,0,1,3.119-3.346,15.008,15.008,0,0,1,2.437-1.294l.235-.1a2.278,2.278,0,0,1,1.868-.17,5.469,5.469,0,0,1,1.775,1.361,29.494,29.494,0,0,1,4.438,6.589,6.562,6.562,0,0,1,.87,2.7,4.264,4.264,0,0,1-1.085,2.537c-.112.152-.222.3-.329.439-.647.851-.79,1.1-.7,1.536a16.142,16.142,0,0,0,3.93,5.83,15.474,15.474,0,0,0,5.762,3.835c.458.1.709-.05,1.587-.721.126-.1.255-.2.391-.3a4.288,4.288,0,0,1,2.575-1.152h.005a6.164,6.164,0,0,1,2.711.951,32.494,32.494,0,0,1,6.564,4.406,5.471,5.471,0,0,1,1.366,1.771,2.3,2.3,0,0,1-.17,1.872c-.031.071-.066.148-.1.234a15.013,15.013,0,0,1-1.3,2.432,7.958,7.958,0,0,1-3.351,3.113,5.736,5.736,0,0,1-2.515.55Z" transform="translate(79.547 439.883)" fill="#43bf35"></path>
<circle id="Ellipse_152" data-name="Ellipse 152" cx="38.986" cy="38.986" r="38.986" transform="translate(860.088 1060.729)" fill="#f8eee7"></circle>
<circle id="Ellipse_153" data-name="Ellipse 153" cx="29.89" cy="29.89" r="29.89" transform="translate(869.185 1069.826)" fill="#fff"></circle>
<path id="Path_358" data-name="Path 358" d="M694.187,663.14H683.3a1.361,1.361,0,1,1,0-2.723h10.891a1.361,1.361,0,0,1,0,2.723Z" transform="translate(210.333 454.273)" fill="#45bf37"></path>
<path id="Path_359" data-name="Path 359" d="M691.044,664.97a12.267,12.267,0,0,1-12.253-12.253v-2.723a1.361,1.361,0,0,1,2.723,0v2.723a9.53,9.53,0,1,0,19.06,0v-2.723a1.361,1.361,0,0,1,2.723,0v2.723a12.266,12.266,0,0,1-12.253,12.253Z" transform="translate(208.03 445.637)" fill="#3dbd31"></path>
<path id="Path_360" data-name="Path 360" d="M686.438,666.019a1.361,1.361,0,0,1-1.361-1.361v-6.807a1.361,1.361,0,1,1,2.723,0v6.807a1.361,1.361,0,0,1-1.361,1.361Z" transform="translate(212.637 451.395)" fill="#3ebd2f"></path>
<path id="Path_361" data-name="Path 361" d="M688.741,664.707a6.707,6.707,0,0,1-4.812-2.051,6.883,6.883,0,0,1-2-4.842V648.37a6.781,6.781,0,0,1,6.754-6.807h.053a6.735,6.735,0,0,1,6.807,6.807v9.445A6.858,6.858,0,0,1,688.741,664.707Z" transform="translate(210.333 440.454)" fill="#3cbd2d"></path>
<path id="Path_641" data-name="Path 641" d="M10449.263,622.047h-11.525l4.205-28.862a1.5,1.5,0,0,1,2.969.432l-3.705,25.429h8.057a1.5,1.5,0,0,1,0,3Z" transform="translate(-9894 2.439)"></path>
<path id="Path_642" data-name="Path 642" d="M10446.058,644.054a38.977,38.977,0,0,1-9.42-1.153,35.724,35.724,0,0,1-13.4-6.293,1.5,1.5,0,0,1,1.924-2.3,24.427,24.427,0,0,0,3.281,2.157,36.157,36.157,0,0,0,22.743,4.232,45.4,45.4,0,0,0,17.377-6.516,1.5,1.5,0,1,1,1.566,2.558,48.322,48.322,0,0,1-18.629,6.943A40.04,40.04,0,0,1,10446.058,644.054Z" transform="translate(-9894)"></path>
<path id="Path_643" data-name="Path 643" d="M10480.191,597.774a1.491,1.491,0,0,1-.565-.112,32.367,32.367,0,0,0-8.895-2.306,23.806,23.806,0,0,0-6.582.207,15.737,15.737,0,0,0-5.543,1.951l.007,0-1.7-2.473a18.135,18.135,0,0,1,6.513-2.392,26.654,26.654,0,0,1,7.471-.288,35.253,35.253,0,0,1,9.861,2.527,1.5,1.5,0,0,1-.567,2.889Z" transform="translate(-9889 -3)"></path>
<path id="Path_644" data-name="Path 644" d="M10458.416,597.774a1.491,1.491,0,0,0,.565-.112,32.367,32.367,0,0,1,8.895-2.306,23.806,23.806,0,0,1,6.582.207,15.737,15.737,0,0,1,5.543,1.951l-.007,0,1.7-2.473a18.135,18.135,0,0,0-6.513-2.392,26.654,26.654,0,0,0-7.471-.288,35.253,35.253,0,0,0-9.861,2.527,1.5,1.5,0,0,0,.567,2.889Z" transform="translate(-9947 -3)"></path>
<circle id="Ellipse_192" data-name="Ellipse 192" cx="3" cy="3" r="3" transform="translate(1013 528)"></circle>
<circle id="Ellipse_193" data-name="Ellipse 193" cx="3" cy="3" r="3" transform="translate(1033 528)"></circle>
<g id="Group_30" data-name="Group 30" transform="translate(-83.565)">
<path id="Path_644-2" data-name="Path 644" d="M363.433,593.37c0,61.666-64.65,91.173-64.65,91.173s-65.313-29.507-66.639-91.173c-.779-36.246,29.39-65.645,65.645-65.645a65.645,65.645,0,0,1,65.645,65.645Z" transform="translate(-42.42 -474.08)" fill="#f8eee7"></path>
<path id="Path_645" data-name="Path 645" d="M150.951,558.643H107.187l-5.305-21.218h54.373Z" transform="translate(127.293 -344.533)" fill="#3cc22d"></path>
<rect id="Rectangle_82" data-name="Rectangle 82" width="40.779" height="21.251" transform="translate(235.972 250.398)" fill="#e8cfbe"></rect>
<path id="Path_646" data-name="Path 646" d="M316.594,733.617H275.151V711.7h41.442Zm-40.779-.663h40.116V712.365H275.814Z" transform="translate(-39.511 -461.636)" fill="#e8cfbe"></path>
<path id="Path_647" data-name="Path 647" d="M136.357,559.834H119.639l-1.919-3.015h20.555Z" transform="translate(128.365 -343.221)" fill="#cbcbcb"></path>
<rect id="Rectangle_83" data-name="Rectangle 83" width="0.663" height="32.491" transform="translate(234.812 214.111)" fill="#e8cfbe"></rect>
<rect id="Rectangle_84" data-name="Rectangle 84" width="0.663" height="32.491" transform="translate(277.249 214.111)" fill="#e8cfbe"></rect>
<path id="Path_648" data-name="Path 648" d="M300.811,666.56l-.4-.525c19.156-14.772,41.99-40.079,41.99-76.752A65.224,65.224,0,0,0,302.506,529.1l.258-.611a65.885,65.885,0,0,1,40.3,60.791C343.059,626.226,320.084,651.7,300.811,666.56Z" transform="translate(-37.803 -474.028)" fill="#e8cfbe"></path>
<path id="Path_649" data-name="Path 649" d="M280.936,666.548l-.4-.525c19.156-14.772,41.991-40.079,41.991-76.753a65.3,65.3,0,0,0-39.436-59.987l.263-.609a65.963,65.963,0,0,1,39.836,60.6C323.185,626.213,300.21,651.685,280.936,666.548Z" transform="translate(-39.146 -474.015)" fill="#e8cfbe"></path>
<path id="Path_650" data-name="Path 650" d="M309.022,666.548c-19.274-14.863-42.249-40.335-42.249-77.278a65.963,65.963,0,0,1,39.837-60.6l.263.609a65.3,65.3,0,0,0-39.437,59.987c0,36.673,22.835,61.98,41.99,76.752Z" transform="translate(-40.077 -474.015)" fill="#e8cfbe"></path>
<path id="Path_651" data-name="Path 651" d="M289.148,666.568C269.874,651.7,246.9,626.233,246.9,589.29a65.84,65.84,0,0,1,40.564-60.9l.256.612a65.178,65.178,0,0,0-40.157,60.293c0,36.674,22.835,61.981,41.99,76.752Z" transform="translate(-41.422 -474.035)" fill="#e8cfbe"></path>
<rect id="Rectangle_85" data-name="Rectangle 85" width="0.663" height="139.246" transform="translate(255.037 53.646)" fill="#e8cfbe"></rect>
<line id="Line_1" data-name="Line 1" y1="12.159" x2="12.159" transform="translate(235.972 245.814)" fill="#fff"></line>
<rect id="Rectangle_86" data-name="Rectangle 86" width="17.195" height="0.663" transform="translate(235.742 257.74) rotate(-45)" fill="#e8cfbe"></rect>
<line id="Line_2" data-name="Line 2" y1="19.007" x2="18.077" transform="translate(235.972 245.607)" fill="#fff"></line>
<rect id="Rectangle_87" data-name="Rectangle 87" width="26.231" height="0.663" transform="translate(235.737 264.388) rotate(-46.444)" fill="#e8cfbe"></rect>
<rect id="Rectangle_88" data-name="Rectangle 88" width="49.731" height="5.968" transform="translate(230.833 245.607)" fill="#e8cfbe"></rect>
<path id="Path_652" data-name="Path 652" d="M320.732,713.846H270.338v-6.631h50.394ZM271,713.183h49.068v-5.3H271Z" transform="translate(-39.836 -461.94)" fill="#e8cfbe"></path>
</g>
<g id="Group_31" data-name="Group 31">
<path id="Path_644-3" data-name="Path 644" d="M336.13,579.72c0,48.844-51.207,72.215-51.207,72.215S233.19,628.564,232.14,579.72c-.617-28.709,23.279-51.995,51.995-51.995a52,52,0,0,1,52,51.995Z" transform="translate(1027.855 631.509)" fill="#e8cfbe"></path>
<path id="Path_645-2" data-name="Path 645" d="M140.748,554.231H106.084l-4.2-16.806h43.067Z" transform="translate(1189.362 732.102)" fill="#41c232"></path>
<rect id="Rectangle_82-2" data-name="Rectangle 82" width="32.3" height="16.832" transform="translate(1296.627 1315.075)" fill="#e8cfbe"></rect>
<path id="Path_646-2" data-name="Path 646" d="M307.976,729.06H275.151V711.7h32.825Zm-32.3-.525h31.775V712.227H275.677Z" transform="translate(1021.214 603.11)" fill="#e8cfbe"></path>
<path id="Path_647-2" data-name="Path 647" d="M132.481,559.207H119.24l-1.52-2.388H134Z" transform="translate(1186.918 729.108)" fill="#cbcbcb"></path>
<rect id="Rectangle_83-2" data-name="Rectangle 83" width="0.525" height="25.735" transform="translate(1295.709 1286.333)" fill="#e8cfbe"></rect>
<rect id="Rectangle_84-2" data-name="Rectangle 84" width="0.525" height="25.735" transform="translate(1329.322 1286.333)" fill="#e8cfbe"></rect>
<path id="Path_648-2" data-name="Path 648" d="M300.727,637.851l-.321-.416c15.173-11.7,33.259-31.745,33.259-60.793a51.662,51.662,0,0,0-31.6-47.667l.2-.484a52.185,52.185,0,0,1,31.916,48.151C334.19,605.9,315.993,626.079,300.727,637.851Z" transform="translate(1017.315 631.391)" fill="#3ebd2f"></path>
<path id="Path_649-2" data-name="Path 649" d="M280.852,637.88l-.321-.416c15.173-11.7,33.259-31.745,33.259-60.793a51.722,51.722,0,0,0-31.236-47.513l.208-.482a52.247,52.247,0,0,1,31.553,48C314.316,605.932,296.118,626.108,280.852,637.88Z" transform="translate(1020.384 631.362)" fill="#41c232"></path>
<path id="Path_650-2" data-name="Path 650" d="M300.237,637.88c-15.266-11.772-33.464-31.948-33.464-61.209a52.247,52.247,0,0,1,31.554-48l.208.482A51.722,51.722,0,0,0,267.3,576.671c0,29.048,18.086,49.093,33.259,60.793Z" transform="translate(1022.507 631.362)" fill="#41bd33"></path>
<path id="Path_651-2" data-name="Path 651" d="M280.363,637.835C265.1,626.063,246.9,605.887,246.9,576.626a52.15,52.15,0,0,1,32.13-48.24l.2.485a51.626,51.626,0,0,0-31.807,47.756c0,29.048,18.086,49.093,33.259,60.793Z" transform="translate(1025.574 631.407)" fill="#3cc22d"></path>
<rect id="Rectangle_85-2" data-name="Rectangle 85" width="0.525" height="110.292" transform="translate(1311.729 1159.234)" fill="#40cc31"></rect>
<line id="Line_1-2" data-name="Line 1" y1="9.631" x2="9.631" transform="translate(1296.627 1311.444)" fill="#fff"></line>
<rect id="Rectangle_86-2" data-name="Rectangle 86" width="13.62" height="0.525" transform="translate(1296.445 1320.891) rotate(-45)" fill="#e8cfbe"></rect>
<line id="Line_2-2" data-name="Line 2" y1="15.055" x2="14.318" transform="translate(1296.627 1311.28)" fill="#fff"></line>
<rect id="Rectangle_87-2" data-name="Rectangle 87" width="20.776" height="0.525" transform="translate(1296.441 1326.156) rotate(-46.444)" fill="#e8cfbe"></rect>
<rect id="Rectangle_88-2" data-name="Rectangle 88" width="39.39" height="4.727" transform="translate(1292.558 1311.28)" fill="#e8cfbe"></rect>
<path id="Path_652-2" data-name="Path 652" d="M310.253,712.467H270.338v-5.252h39.915Zm-39.39-.525h38.865v-4.2H270.863Z" transform="translate(1021.957 603.803)" fill="#e8cfbe"></path>
</g>
<rect id="Rectangle_89" data-name="Rectangle 89" width="1500" height="1500" opacity="0"></rect>
</g>
</g>
</svg>