<svg width="55" height="108" viewBox="0 0 55 108" fill="none" xmlns="http://www.w3.org/2000/svg">
<g clip-path="url(#clip0_1_42)">
<path d="M19.6295 63.0024C19.6313 62.3367 19.8933 61.6989 20.3583 61.2282C20.8233 60.7575 21.4534 60.4922 22.1109 60.4904C22.4378 60.4866 22.7621 60.549 23.0649 60.6739C23.3676 60.7989 23.6426 60.9837 23.8738 61.2178C24.105 61.4518 24.2876 61.7302 24.411 62.0366C24.5344 62.3431 24.596 62.6714 24.5923 63.0024L24.5923 91.9389C24.5886 93.4542 24.2276 94.9468 23.5394 96.2924C22.8512 97.6381 21.8557 98.7981 20.6356 99.676C19.4155 100.554 18.0061 101.124 16.5244 101.34C15.0427 101.555 13.5316 101.41 12.1167 100.915C10.7018 100.421 9.42393 99.5914 8.38929 98.4963C7.35464 97.4012 6.59312 96.072 6.16802 94.6191C5.74291 93.1662 5.6665 91.6315 5.94513 90.1427C6.22376 88.6539 6.84938 87.2538 7.77 86.059C8.18263 85.5488 8.7755 85.2217 9.42265 85.147C10.0698 85.0723 10.7202 85.256 11.2357 85.6591C11.4947 85.858 11.7122 86.1071 11.8753 86.3919C12.0385 86.6766 12.1441 86.9914 12.186 87.3178C12.2279 87.6442 12.2053 87.9759 12.1195 88.2934C12.0337 88.6109 11.8864 88.908 11.6862 89.1674C11.0821 89.9599 10.751 90.9309 10.7435 91.9319C10.7889 93.0931 11.2764 94.1915 12.104 94.9968C12.9317 95.8022 14.0351 96.252 15.1831 96.252C16.331 96.252 17.4344 95.8022 18.2621 94.9968C19.0897 94.1915 19.5772 93.0931 19.6226 91.9319L19.6295 63.0024Z" fill="#23AA49"/>
<path d="M47.4241 86.8098C47.4298 88.2727 47.0519 89.711 46.3289 90.9777C45.6443 92.2386 44.6985 93.3348 43.5564 94.1913C41.0769 96.0116 38.0868 96.9804 35.024 96.9558C34.3664 96.954 33.7363 96.6887 33.2713 96.2181C32.8064 95.7474 32.5444 95.1095 32.5425 94.4439C32.5388 94.113 32.6005 93.7846 32.7239 93.4782C32.8472 93.1717 33.0299 92.8933 33.261 92.6593C33.4922 92.4253 33.7672 92.2404 34.07 92.1155C34.3727 91.9906 34.6971 91.9282 35.024 91.9319C38.6421 91.9319 41.8236 90.0234 42.3642 87.5606C41.0369 88.2844 39.5536 88.6652 38.046 88.6692C36.1869 88.6747 34.3679 88.1224 32.8187 87.082C31.2695 86.0416 30.0596 84.5598 29.3419 82.8237C28.6241 81.0876 28.4307 79.1752 28.786 77.3279C29.1413 75.4806 30.0295 73.7813 31.3382 72.4447C32.647 71.1081 34.3177 70.194 36.1393 69.8181C37.961 69.4421 39.8518 69.621 41.573 70.3322C43.2943 71.0434 44.7687 72.2551 45.8101 73.8141C46.8515 75.3731 47.4131 77.2095 47.4241 79.0915L47.4241 86.8098ZM33.5614 79.0915C33.556 79.9813 33.8114 80.8528 34.2953 81.5957C34.7792 82.3385 35.47 82.9194 36.2801 83.2647C37.0902 83.61 37.9834 83.7043 38.8465 83.5356C39.7095 83.367 40.5038 82.9429 41.1288 82.3172C41.7537 81.6914 42.1813 80.892 42.3573 80.0202C42.5333 79.1484 42.4499 78.2433 42.1177 77.4195C41.7854 76.5956 41.2192 75.8901 40.4908 75.3921C39.7623 74.8941 38.9042 74.6261 38.0252 74.6219C36.851 74.6219 35.7244 75.0916 34.8908 75.9289C34.0573 76.7661 33.5845 77.9029 33.5753 79.0915L33.5614 79.0915Z" fill="#23AA49"/>
<path d="M41.7681 45.5309C42.7456 45.53 43.7137 45.7243 44.6169 46.1028C45.5201 46.4813 46.3407 47.0364 47.0316 47.7365C47.7225 48.4365 48.2701 49.2677 48.6431 50.1824C49.0162 51.097 49.2072 52.0772 49.2054 53.0668L49.2054 64.567L24.4467 64.567C24.0438 66.9163 22.7841 69.0267 20.9171 70.4806C19.0502 71.9344 16.7121 72.6256 14.3656 72.4174C12.0192 72.2091 9.83557 71.1166 8.24698 69.3561C6.6584 67.5956 5.7807 65.2955 5.78765 62.9111C5.78765 60.8061 5.89162 49.2006 7.17391 47.4745C8.01953 46.3729 10.0989 45.7414 10.6396 47.0254C11.2127 48.0985 11.3708 49.3491 11.0832 50.5338C10.9653 51.5301 10.7366 61.8867 10.7366 62.8901C10.713 63.4952 10.8103 64.0989 11.0228 64.665C11.2352 65.2311 11.5585 65.748 11.973 66.1846C12.3876 66.6212 12.885 66.9685 13.4354 67.2058C13.9858 67.443 14.5779 67.5653 15.1761 67.5653C15.7743 67.5653 16.3664 67.443 16.9168 67.2058C17.4672 66.9685 17.9646 66.6212 18.3792 66.1846C18.7938 65.748 19.117 65.2311 19.3295 64.665C19.5419 64.0989 19.6392 63.4952 19.6156 62.8901L19.6156 55.0244C19.6135 53.7405 19.879 52.4706 20.395 51.2977C20.911 50.1249 21.6658 49.0755 22.61 48.2183C24.4969 46.4565 26.9744 45.486 29.5413 45.5028L41.7681 45.5309ZM44.2495 53.0668C44.2532 52.7358 44.1916 52.4075 44.0682 52.101C43.9448 51.7946 43.7622 51.5162 43.531 51.2822C43.2998 51.0481 43.0248 50.8633 42.7221 50.7384C42.4194 50.6135 42.095 50.5511 41.7681 50.5548L29.5413 50.5548C26.8103 50.5548 24.5784 52.5616 24.5784 55.0244L24.5784 59.5501L44.2357 59.5501L44.2495 53.0668Z" fill="#23AA49"/>
<path d="M23.9962 20.65C26.8445 20.6278 29.5857 21.7478 31.6207 23.7654C32.6175 24.7598 33.4091 25.945 33.9493 27.252C34.4896 28.5589 34.7677 29.9616 34.7675 31.3784L34.7675 39.6861L20.2741 39.6861C15.0132 39.6861 10.9931 46.3449 10.9931 51.6144C10.9931 53.0177 10.1405 54.2456 8.75425 54.2456C8.0967 54.2438 7.46661 53.9785 7.00165 53.5078C6.53669 53.0371 6.27467 52.3993 6.27284 51.7336C6.27284 47.8675 7.3264 41.6928 10.0573 38.9283C11.3954 37.5659 12.9878 36.4866 14.7418 35.753C16.4957 35.0194 18.3763 34.6462 20.2741 34.6552L29.8047 34.6552L29.8047 31.3784C29.7809 29.8406 29.1565 28.3748 28.068 27.3018C26.9795 26.2288 25.5155 25.6359 23.9962 25.6528L15.6786 25.6528C12.9477 25.6528 10.7158 27.6596 10.7158 30.1224C10.7186 30.4531 10.6563 30.781 10.5326 31.087C10.4089 31.393 10.2262 31.6711 9.9952 31.9049C9.76423 32.1387 9.48958 32.3236 9.18727 32.4489C8.88496 32.5741 8.56104 32.6372 8.2344 32.6344C7.57741 32.6307 6.94837 32.3649 6.4838 31.8946C6.01923 31.4243 5.75663 30.7875 5.75299 30.1224C5.76458 28.8458 6.03441 27.5852 6.54582 26.4182C7.05723 25.2513 7.79939 24.2028 8.72653 23.3373C10.6211 21.5889 13.0941 20.6226 15.6578 20.6289L23.9962 20.65Z" fill="#23AA49"/>
<path d="M28.6125 9.14265C28.6156 8.58557 28.801 8.04525 29.1397 7.60622C29.4785 7.16719 29.9515 6.85421 30.4846 6.71627C31.0178 6.57833 31.5811 6.6232 32.0864 6.84386C32.5917 7.06452 33.0105 7.44852 33.2773 7.93579C34.7171 7.06894 36.3639 6.6176 38.0391 6.63069C40.5336 6.63069 42.926 7.63386 44.69 9.4195C46.4539 11.2051 47.4449 13.627 47.4449 16.1523C47.4449 18.6775 46.4539 21.0994 44.69 22.885C42.926 24.6707 40.5336 25.6738 38.0391 25.6738C35.6834 25.6885 33.4116 24.7896 31.69 23.1619C30.983 23.9403 30.1267 24.5646 29.1732 24.9965C28.2198 25.4284 27.1894 25.6589 26.1449 25.6738L20.087 25.6738C19.4328 25.663 18.8086 25.3946 18.3467 24.9257C17.8847 24.4567 17.6214 23.8241 17.6125 23.1619C17.6125 22.4969 17.873 21.859 18.3368 21.3881C18.8007 20.9173 19.43 20.6518 20.087 20.6499L26.1449 20.6499C26.8019 20.6462 27.431 20.3804 27.8955 19.9101C28.3601 19.4398 28.6227 18.8031 28.6263 18.138L28.6125 9.14265ZM33.5753 16.1242C33.5698 17.014 33.8252 17.8855 34.3092 18.6284C34.7931 19.3712 35.4838 19.952 36.294 20.2974C37.1041 20.6427 37.9972 20.737 38.8603 20.5684C39.7234 20.3997 40.5177 19.9756 41.1426 19.3499C41.7676 18.7241 42.1951 17.9247 42.3712 17.0529C42.5472 16.1811 42.4638 15.276 42.1316 14.4522C41.7993 13.6283 41.2331 12.9228 40.5046 12.4248C39.7761 11.9268 38.9181 11.6588 38.0391 11.6546C36.8625 11.6509 35.7323 12.119 34.8958 12.9566C34.0592 13.7942 33.5845 14.9331 33.5753 16.1242Z" fill="#23AA49"/>
<path d="M35.6547 108L19.3384 108C8.67108 108 -2.21406e-06 100.983 -2.58916e-06 92.402L-5.94637e-06 15.598C-6.32239e-06 6.99558 8.67107 1.76407e-06 19.3384 1.29778e-06C19.6129 0.0221615 19.8691 0.148201 20.0559 0.353006C20.2427 0.557812 20.3465 0.826348 20.3465 1.10512C20.3465 1.38389 20.2427 1.65244 20.0559 1.85724C19.8691 2.06205 19.6129 2.18808 19.3384 2.21024C9.87712 2.21024 2.17643 8.21647 2.17643 15.598L2.17643 92.4231C2.17643 99.7835 9.87713 105.755 19.3384 105.755L35.6547 105.755C45.1159 105.755 52.8166 99.7484 52.8166 92.3669L52.8166 15.598C52.8166 8.21647 45.1159 2.21023 35.6547 2.21024C35.3802 2.18808 35.124 2.06205 34.9372 1.85724C34.7504 1.65244 34.6466 1.38389 34.6466 1.10512C34.6466 0.826347 34.7504 0.557811 34.9372 0.353006C35.124 0.1482 35.3802 0.0221609 35.6547 5.84574e-07C46.322 1.18292e-07 55 7.01663 55 15.598L55 92.4231C55 101.004 46.322 108 35.6547 108Z" fill="#23AA49"/>
</g>
<defs>
<clipPath id="clip0_1_42">
<rect width="108" height="55" fill="white" transform="translate(0 108) rotate(-90)"/>
</clipPath>
</defs>
</svg>
