<svg width="24" height="47" viewBox="0 0 24 47" fill="none" xmlns="http://www.w3.org/2000/svg">
<g clip-path="url(#clip0_1_71)">
<path d="M8.6944 27.351C8.69517 27.0662 8.80522 26.7934 9.0005 26.592C9.19578 26.3907 9.46042 26.2772 9.73659 26.2764C9.87389 26.2748 10.0101 26.3015 10.1373 26.3549C10.2644 26.4084 10.3799 26.4875 10.477 26.5876C10.5741 26.6877 10.6508 26.8068 10.7026 26.9379C10.7545 27.069 10.7803 27.2094 10.7788 27.351L10.7788 39.7294C10.7772 40.3776 10.6256 41.0161 10.3366 41.5917C10.0475 42.1674 9.62942 42.6636 9.11698 43.0391C8.60454 43.4147 8.01257 43.6587 7.39026 43.7509C6.76796 43.8431 6.13331 43.7808 5.53904 43.5693C4.94478 43.3577 4.40807 43.0029 3.97352 42.5345C3.53897 42.0661 3.21913 41.4974 3.04058 40.8759C2.86204 40.2544 2.82995 39.5979 2.94697 38.961C3.06399 38.3241 3.32676 37.7252 3.71342 37.2141C3.88672 36.9959 4.13573 36.8559 4.40753 36.824C4.67933 36.792 4.9525 36.8706 5.16899 37.043C5.27781 37.1281 5.36913 37.2347 5.43765 37.3565C5.50617 37.4783 5.55052 37.613 5.56813 37.7526C5.58573 37.8922 5.57624 38.0341 5.54021 38.1699C5.50417 38.3058 5.44231 38.4328 5.35822 38.5438C5.10449 38.8828 4.96543 39.2982 4.9623 39.7264C4.98134 40.2232 5.18612 40.693 5.53372 41.0375C5.88131 41.382 6.34475 41.5744 6.8269 41.5744C7.30905 41.5744 7.77248 41.382 8.12008 41.0375C8.46767 40.693 8.67245 40.2232 8.69149 39.7264L8.6944 27.351Z" fill="#23AA49"/>
<path d="M20.3681 37.5353C20.3705 38.1611 20.2118 38.7763 19.9082 39.3182C19.6206 39.8576 19.2234 40.3265 18.7437 40.6929C17.7023 41.4716 16.4464 41.886 15.1601 41.8755C14.8839 41.8747 14.6193 41.7613 14.424 41.5599C14.2287 41.3586 14.1186 41.0857 14.1179 40.801C14.1163 40.6594 14.1422 40.519 14.194 40.3879C14.2459 40.2568 14.3226 40.1377 14.4196 40.0376C14.5167 39.9375 14.6322 39.8584 14.7594 39.8049C14.8865 39.7515 15.0228 39.7248 15.1601 39.7264C16.6797 39.7264 18.0159 38.91 18.243 37.8564C17.6855 38.1661 17.0625 38.329 16.4293 38.3307C15.6485 38.3331 14.8845 38.0968 14.2339 37.6517C13.5832 37.2067 13.0751 36.5728 12.7736 35.8301C12.4721 35.0875 12.3909 34.2694 12.5401 33.4791C12.6894 32.6889 13.0624 31.962 13.6121 31.3902C14.1617 30.8184 14.8634 30.4274 15.6285 30.2666C16.3936 30.1058 17.1878 30.1823 17.9107 30.4865C18.6336 30.7908 19.2528 31.3091 19.6902 31.976C20.1276 32.6429 20.3635 33.4285 20.3681 34.2336L20.3681 37.5353ZM14.5458 34.2336C14.5435 34.6142 14.6508 34.987 14.854 35.3048C15.0573 35.6226 15.3474 35.871 15.6877 36.0188C16.0279 36.1665 16.403 36.2068 16.7655 36.1347C17.128 36.0625 17.4616 35.8811 17.7241 35.6134C17.9866 35.3458 18.1661 35.0038 18.2401 34.6309C18.314 34.2579 18.279 33.8707 18.1394 33.5183C17.9999 33.1659 17.7621 32.8641 17.4561 32.6511C17.1502 32.438 16.7898 32.3234 16.4206 32.3216C15.9274 32.3216 15.4542 32.5225 15.1042 32.8807C14.7541 33.2388 14.5555 33.7251 14.5516 34.2336L14.5458 34.2336Z" fill="#23AA49"/>
<path d="M17.9926 19.8771C18.4032 19.8767 18.8098 19.9599 19.1891 20.1218C19.5685 20.2837 19.9131 20.5211 20.2033 20.8206C20.4934 21.1201 20.7234 21.4756 20.8801 21.8669C21.0368 22.2582 21.117 22.6775 21.1163 23.1008L21.1163 28.0203L10.7176 28.0203C10.5484 29.0253 10.0193 29.9281 9.2352 30.55C8.45108 31.1719 7.46907 31.4676 6.48357 31.3785C5.49808 31.2895 4.58094 30.8221 3.91374 30.069C3.24653 29.3159 2.8779 28.332 2.88082 27.312C2.88082 26.4115 2.92448 21.4469 3.46305 20.7085C3.81821 20.2373 4.69155 19.9672 4.91862 20.5164C5.15933 20.9755 5.22574 21.5105 5.10494 22.0172C5.05545 22.4434 4.95938 26.8738 4.95938 27.303C4.94946 27.5618 4.99034 27.8201 5.07957 28.0623C5.1688 28.3044 5.30455 28.5255 5.47867 28.7123C5.6528 28.8991 5.86171 29.0476 6.09288 29.1491C6.32405 29.2506 6.57271 29.3029 6.82397 29.3029C7.07523 29.3029 7.3239 29.2506 7.55507 29.1491C7.78624 29.0476 7.99515 28.8991 8.16927 28.7123C8.34339 28.5255 8.47914 28.3044 8.56837 28.0623C8.6576 27.8201 8.69849 27.5618 8.68856 27.303L8.68856 23.9382C8.68765 23.389 8.7992 22.8458 9.01591 22.344C9.23263 21.8423 9.54963 21.3934 9.94618 21.0267C10.7387 20.2731 11.7792 19.8579 12.8573 19.8651L17.9926 19.8771ZM19.0348 23.1008C19.0364 22.9592 19.0105 22.8188 18.9586 22.6877C18.9068 22.5566 18.8301 22.4375 18.733 22.3374C18.6359 22.2373 18.5204 22.1582 18.3933 22.1047C18.2661 22.0513 18.1299 22.0246 17.9926 22.0262L12.8573 22.0262C11.7103 22.0262 10.7729 22.8847 10.7729 23.9382L10.7729 25.8742L19.029 25.8742L19.0348 23.1008Z" fill="#23AA49"/>
<path d="M10.5284 9.23358C11.7247 9.22408 12.876 9.70321 13.7307 10.5663C14.1494 10.9917 14.4818 11.4987 14.7087 12.0578C14.9356 12.6169 15.0524 13.2169 15.0524 13.823L15.0524 17.3768L8.96514 17.3768C6.75557 17.3768 5.0671 20.2253 5.0671 22.4795C5.0671 23.0798 4.70903 23.605 4.1268 23.605C3.85063 23.6042 3.58599 23.4908 3.39071 23.2894C3.19543 23.0881 3.08538 22.8152 3.08461 22.5305C3.08461 20.8766 3.5271 18.2353 4.6741 17.0526C5.23609 16.4699 5.90488 16.0081 6.64156 15.6943C7.37823 15.3805 8.16807 15.2209 8.96514 15.2247L12.968 15.2247L12.968 13.823C12.958 13.1651 12.6957 12.5381 12.2386 12.0791C11.7814 11.6201 11.1665 11.3665 10.5284 11.3737L7.03504 11.3737C5.88805 11.3737 4.95066 12.2321 4.95066 13.2857C4.95182 13.4271 4.92566 13.5674 4.8737 13.6983C4.82173 13.8292 4.74501 13.9482 4.648 14.0482C4.55099 14.1482 4.43564 14.2273 4.30867 14.2809C4.1817 14.3345 4.04565 14.3614 3.90846 14.3602C3.63253 14.3587 3.36833 14.2449 3.17321 14.0438C2.97809 13.8426 2.8678 13.5702 2.86627 13.2857C2.87114 12.7396 2.98447 12.2003 3.19926 11.7011C3.41405 11.2019 3.72576 10.7534 4.11516 10.3832C4.91089 9.63524 5.94955 9.22186 7.02631 9.22457L10.5284 9.23358Z" fill="#23AA49"/>
<path d="M12.4673 4.311C12.4686 4.0727 12.5464 3.84156 12.6887 3.65375C12.831 3.46594 13.0296 3.33206 13.2536 3.27305C13.4775 3.21404 13.7141 3.23324 13.9263 3.32763C14.1385 3.42203 14.3144 3.58629 14.4265 3.79473C15.0312 3.42391 15.7228 3.23084 16.4264 3.23644C17.4741 3.23644 18.479 3.66558 19.2198 4.42943C19.9607 5.19329 20.3769 6.2293 20.3769 7.30956C20.3769 8.38982 19.9607 9.42583 19.2198 10.1897C18.479 10.9535 17.4741 11.3827 16.4264 11.3827C15.437 11.3889 14.4829 11.0044 13.7598 10.3081C13.4629 10.6411 13.1032 10.9082 12.7028 11.0929C12.3023 11.2777 11.8696 11.3763 11.4309 11.3827L8.88654 11.3827C8.61181 11.378 8.34965 11.2632 8.15563 11.0626C7.96161 10.862 7.85101 10.5914 7.84726 10.3081C7.84726 10.0236 7.95666 9.75078 8.15148 9.54935C8.3463 9.34792 8.61064 9.23436 8.88654 9.23356L11.4309 9.23356C11.7068 9.23199 11.971 9.11827 12.1661 8.91709C12.3613 8.71591 12.4716 8.44351 12.4731 8.159L12.4673 4.311ZM14.5516 7.29755C14.5493 7.6782 14.6566 8.051 14.8599 8.36878C15.0631 8.68655 15.3532 8.93502 15.6935 9.08275C16.0337 9.23047 16.4088 9.27081 16.7713 9.19866C17.1338 9.12651 17.4674 8.94512 17.7299 8.67743C17.9924 8.40974 18.172 8.06778 18.2459 7.69484C18.3198 7.32189 18.2848 6.93472 18.1453 6.5823C18.0057 6.22989 17.7679 5.92807 17.462 5.71504C17.156 5.50201 16.7956 5.38735 16.4264 5.38556C15.9323 5.38396 15.4576 5.58422 15.1062 5.94253C14.7549 6.30085 14.5555 6.78805 14.5516 7.29755Z" fill="#23AA49"/>
<path d="M15.425 46.6L8.57213 46.6C4.09186 46.6 0.450012 43.5984 0.450012 39.9275L0.45001 7.07244C0.45001 3.39253 4.09186 0.399975 8.57213 0.399974C8.68742 0.409454 8.79502 0.463371 8.87349 0.550983C8.95195 0.638591 8.99553 0.753467 8.99553 0.872718C8.99553 0.99197 8.95195 1.10685 8.87349 1.19446C8.79502 1.28207 8.68742 1.33598 8.57213 1.34546C4.5984 1.34546 1.36411 3.9148 1.36411 7.07244L1.36411 39.9365C1.36411 43.0851 4.59841 45.6395 8.57213 45.6395L15.425 45.6395C19.3987 45.6395 22.633 43.0701 22.633 39.9125L22.633 7.07244C22.633 3.9148 19.3987 1.34546 15.425 1.34546C15.3097 1.33598 15.2021 1.28207 15.1236 1.19446C15.0452 1.10685 15.0016 0.991969 15.0016 0.872718C15.0016 0.753467 15.0452 0.638591 15.1236 0.550983C15.2021 0.463371 15.3097 0.409454 15.425 0.399974C19.9052 0.399974 23.55 3.40153 23.55 7.07244L23.55 39.9365C23.55 43.6074 19.9053 46.6 15.425 46.6Z" fill="#23AA49"/>
</g>
<defs>
<clipPath id="clip0_1_71">
<rect width="46.2" height="23.1" fill="white" transform="translate(0.450012 46.6) rotate(-90)"/>
</clipPath>
</defs>
</svg>
